<svg width="60" height="67" viewBox="0 0 60 67" fill="none" xmlns="http://www.w3.org/2000/svg">
<g clip-path="url(#clip0_6511_1852)">
<g clip-path="url(#clip1_6511_1852)">
<g clip-path="url(#clip2_6511_1852)">
<mask id="mask0_6511_1852" style="mask-type:luminance" maskUnits="userSpaceOnUse" x="0" y="0" width="60" height="60">
<path d="M59.7933 0H0.488281V59.305H59.7933V0Z" fill="white"/>
</mask>
<g mask="url(#mask0_6511_1852)">
<path d="M44.0197 55.9459C43.4191 55.9459 42.9253 56.4029 42.867 56.9881H34.1505L32.7754 48.7076L34.3038 47.1792C34.521 46.962 34.6431 46.6673 34.6431 46.3602C34.6431 46.053 34.521 45.7584 34.3038 45.5411L32.9514 44.1887H35.2624C37.7986 44.1887 40.1586 45.4475 41.5752 47.5561C41.9319 48.0871 42.6516 48.2282 43.1825 47.8717C43.7135 47.5148 43.8547 46.7952 43.498 46.2641C41.6649 43.5356 38.6198 41.8989 35.3403 41.8732C36.4624 40.6306 37.1468 38.9856 37.1468 37.1835V35.4847C37.1468 31.6219 34.0044 28.4795 30.1416 28.4795C26.2789 28.4795 23.1365 31.6219 23.1365 35.4847V37.1835C23.1365 38.9861 23.8212 40.6313 24.9435 41.8741C19.5118 41.916 15.1055 46.3461 15.1055 51.7876V58.1464C15.1055 58.7861 15.624 59.3048 16.2638 59.3048H44.0195C44.6592 59.3048 45.1778 58.7861 45.1778 58.1464V57.1042C45.178 56.4646 44.6594 55.9459 44.0197 55.9459ZM30.1552 48.0518L28.4635 46.3602L30.1552 44.6686L31.8469 46.3602L30.1552 48.0518ZM29.5556 50.6796C29.7395 50.791 29.9471 50.8481 30.1551 50.8481C30.3631 50.8481 30.5708 50.7911 30.7545 50.6796L31.8022 56.9881H28.5079L29.5556 50.6796ZM25.4533 35.4847C25.4533 32.8994 27.5565 30.7961 30.1419 30.7961C32.7272 30.7961 34.8305 32.8993 34.8305 35.4847V37.1835C34.8305 39.7688 32.7272 41.8721 30.1419 41.8721C27.5565 41.8721 25.4533 39.7688 25.4533 37.1835V35.4847ZM17.4223 51.7876C17.4223 47.5975 20.8312 44.1887 25.0212 44.1887H27.3587L26.0063 45.5411C25.7891 45.7584 25.667 46.053 25.667 46.3602C25.667 46.6673 25.7891 46.962 26.0063 47.1792L27.5347 48.7076L26.1596 56.9881H17.4222L17.4223 51.7876Z" fill="#3BB77E"/>
<path d="M24 1.28564C24.3429 1.28564 32.1429 1.57136 36 1.71422V14.1428L24 13.7142V1.28564Z" fill="#FDC040"/>
<path d="M51.4297 1.71411L45.4297 12.857H58.2868L52.2868 2.14268L51.4297 1.71411Z" fill="#FDC040"/>
<path d="M24 1.28564C24.3429 1.28564 32.1429 1.57136 36 1.71422V14.1428L24 13.7142V1.28564Z" stroke="black" stroke-width="0.857143" stroke-linecap="round" stroke-linejoin="round"/>
<path d="M51.4297 1.71411L45.4297 12.857H58.2868L52.2868 2.14268L51.4297 1.71411Z" stroke="black" stroke-width="0.857143" stroke-linecap="round" stroke-linejoin="round"/>
<path d="M15.3012 7.40739C15.3012 3.32344 11.9786 0.000976562 7.8948 0.000976562C3.81098 0.000976562 0.488281 3.32356 0.488281 7.40739C0.488281 11.4912 3.81087 14.8138 7.89469 14.8138C11.9785 14.8138 15.3012 11.4913 15.3012 7.40739ZM2.80488 7.40739C2.80488 4.60094 5.08812 2.31758 7.89469 2.31758C10.7013 2.31758 12.9845 4.60094 12.9845 7.40739C12.9845 10.2138 10.7013 12.4972 7.89469 12.4972C5.08812 12.4972 2.80488 10.214 2.80488 7.40739Z" fill="#3BB77E"/>
<path d="M23.8926 14.813H36.389C37.0287 14.813 37.5473 14.2942 37.5473 13.6546V1.1583C37.5473 0.518687 37.0287 0 36.389 0H23.8926C23.2529 0 22.7344 0.518687 22.7344 1.1583V13.6546C22.7344 14.2942 23.2529 14.813 23.8926 14.813ZM25.051 2.31661H35.2307V12.4964H25.051V2.31661Z" fill="#3BB77E"/>
<path d="M59.6378 12.6151L52.9543 1.03911C52.7474 0.680734 52.3651 0.459961 51.9512 0.459961C51.5373 0.459961 51.155 0.680734 50.9481 1.03911L44.2646 12.6151C44.0576 12.9736 44.0576 13.4151 44.2646 13.7735C44.4715 14.1318 44.8538 14.3526 45.2677 14.3526H58.6347C59.0486 14.3526 59.4309 14.1318 59.6378 13.7735C59.8448 13.4151 59.8448 12.9736 59.6378 12.6151ZM47.2739 12.036L51.9511 3.93487L56.6283 12.036H47.2739Z" fill="#3BB77E"/>
<path d="M30.1413 26.2057C30.7811 26.2057 31.2997 25.6869 31.2997 25.0473V21.7424L31.3466 21.8078C31.5728 22.1239 31.9284 22.2922 32.2895 22.2922C32.5228 22.2922 32.7584 22.2219 32.9627 22.0757C33.4829 21.7034 33.6028 20.9799 33.2306 20.4597L31.0834 17.4594C30.8659 17.1554 30.5151 16.9751 30.1415 16.9751C29.7678 16.9751 29.417 17.1554 29.1995 17.4594L27.0524 20.4597C26.6801 20.9799 26.8 21.7034 27.3202 22.0757C27.8404 22.448 28.5638 22.3282 28.9363 21.8079L28.9831 21.7424V25.0473C28.9831 25.6871 29.5016 26.2057 30.1413 26.2057Z" fill="#3BB77E"/>
<path d="M20.6058 35.5868C20.6058 34.9471 20.0872 34.4284 19.4475 34.4284H9.06135V21.7424L9.10832 21.8078C9.33452 22.1239 9.69006 22.2922 10.0513 22.2922C10.2845 22.2922 10.5201 22.2219 10.7245 22.0757C11.2447 21.7034 11.3645 20.9799 10.9922 20.4597L8.84509 17.4594C8.62754 17.1554 8.27684 16.9751 7.90318 16.9751C7.52951 16.9751 7.17878 17.1554 6.96125 17.4594L4.81411 20.4597C4.44183 20.9799 4.56171 21.7034 5.08191 22.0757C5.60199 22.448 6.32558 22.3282 6.69797 21.8079L6.74476 21.7424V35.5868C6.74476 36.2264 7.26333 36.745 7.90306 36.745H19.4475C20.0871 36.745 20.6058 36.2264 20.6058 35.5868Z" fill="#3BB77E"/>
<path d="M53.3205 17.4594C53.1029 17.1554 52.7522 16.9751 52.3786 16.9751C52.0049 16.9751 51.6542 17.1554 51.4366 17.4594L49.2895 20.4597C48.9172 20.9799 49.0371 21.7034 49.5573 22.0757C50.0775 22.448 50.8011 22.3282 51.1733 21.8079L51.2202 21.7424V34.4285H40.8341C40.1944 34.4285 39.6758 34.9472 39.6758 35.5868C39.6758 36.2264 40.1944 36.7451 40.8341 36.7451H52.3786C53.0182 36.7451 53.5368 36.2264 53.5368 35.5868V21.7424L53.5838 21.8079C53.81 22.124 54.1656 22.2923 54.5267 22.2923C54.76 22.2923 54.9956 22.222 55.1999 22.0758C55.7201 21.7035 55.84 20.9801 55.4678 20.4599L53.3205 17.4594Z" fill="#3BB77E"/>
<path d="M44.0177 53.0505C44.6574 53.0505 45.176 52.5319 45.176 51.8922C45.176 51.2525 44.6574 50.7339 44.0177 50.7339C43.3779 50.7339 42.8594 51.2525 42.8594 51.8922C42.8594 52.5319 43.3779 53.0505 44.0177 53.0505Z" fill="#3BB77E"/>
</g>
</g>
</g>
</g>
<defs>
<clipPath id="clip0_6511_1852">
<rect width="60" height="60" fill="white"/>
</clipPath>
<clipPath id="clip1_6511_1852">
<rect width="60" height="60" fill="white"/>
</clipPath>
<clipPath id="clip2_6511_1852">
<rect width="60" height="60" fill="white"/>
</clipPath>
</defs>
</svg>
