<svg width="60" height="60" viewBox="0 0 60 60" fill="none" xmlns="http://www.w3.org/2000/svg">
<g clip-path="url(#clip0_6511_1798)">
<mask id="mask0_6511_1798" style="mask-type:luminance" maskUnits="userSpaceOnUse" x="0" y="0" width="60" height="60">
<path d="M59.305 0H0V59.305H59.305V0Z" fill="white"/>
</mask>
<g mask="url(#mask0_6511_1798)">
<path d="M37.7126 4.28589H29.1412L18.8555 14.5716L23.9983 17.5716L29.1412 12.4287L39.8555 23.143L43.7126 27.8573L49.284 28.7145L51.8555 24.0002V7.71446L47.5698 4.28589H37.7126Z" fill="#FDC040"/>
<path d="M55.3668 12.3328H53.048L53.0502 8.18732C53.0516 5.40423 50.7888 3.13876 48.0052 3.13739L30.4063 3.12744H30.4041C29.4023 3.12744 28.4603 3.51747 27.7517 4.22602L1.47819 30.4995C0.524855 31.4529 0 32.7202 0 34.0686C0 35.4169 0.524855 36.6842 1.47819 37.6376L18.5288 54.6882C19.5129 55.6723 20.8055 56.1641 22.0977 56.1641C23.3905 56.1641 24.6831 55.6723 25.6672 54.6882L42.2092 38.1462C42.6617 37.6937 42.6617 36.9602 42.2092 36.5083C41.7567 36.0558 41.0233 36.0558 40.5709 36.5083L24.0289 53.0503C22.9642 54.1149 21.2318 54.1149 20.1671 53.0503L3.11655 35.9997C2.60075 35.4839 2.3166 34.7979 2.3166 34.0686C2.3166 33.3392 2.60075 32.6533 3.11655 32.1374L29.3896 5.86438C29.6607 5.59336 30.0208 5.44404 30.4041 5.44404H30.405L48.0039 5.454C49.5097 5.45445 50.7345 6.68062 50.7336 8.18641L50.7282 17.8927H45.5109C45.0615 17.8927 44.6547 17.7089 44.3607 17.413C44.8453 17.2053 45.2996 16.9053 45.6945 16.5103C47.3591 14.8453 47.3591 12.1369 45.6945 10.4723C44.0295 8.8072 41.3211 8.8072 39.656 10.4723C37.9914 12.1369 37.9914 14.8453 39.656 16.5103C40.2731 17.1275 41.0342 17.5153 41.8319 17.675C42.3988 19.155 43.8336 20.2093 45.5109 20.2093H50.7268L50.7237 25.7618C50.7237 26.1451 50.5743 26.5048 50.3033 26.7753L47.1234 29.9557C46.6709 30.4081 46.6709 31.1416 47.1234 31.5941C47.5755 32.0461 48.3088 32.0461 48.7613 31.5941L51.9417 28.4137C52.6493 27.7056 53.0398 26.7645 53.0403 25.7632L53.0434 20.2093H55.3668C57.5382 20.2093 59.305 18.4429 59.305 16.271C59.305 14.0996 57.5382 12.3328 55.3668 12.3328ZM41.2943 12.1102C41.6753 11.7292 42.1753 11.5392 42.6757 11.5392C43.1757 11.5392 43.6756 11.7296 44.0566 12.1102C44.177 12.231 44.2765 12.3644 44.3589 12.5052C43.0875 12.8947 42.0885 13.9123 41.7233 15.1946C41.5699 15.1091 41.4247 15.0027 41.2943 14.8724C40.5328 14.1105 40.5328 12.8717 41.2943 12.1102ZM55.3668 17.8927H53.0448L53.0466 14.6494H55.3668C56.2609 14.6494 56.9884 15.3769 56.9884 16.271C56.9884 17.165 56.2609 17.8927 55.3668 17.8927Z" fill="#3BB77E"/>
<path d="M18.695 32.3519C18.8376 32.8644 19.3032 33.1998 19.8099 33.1998C19.9131 33.1998 20.0176 33.1862 20.1212 33.1572L32.0119 29.8475C32.6281 29.676 32.9887 29.0371 32.8173 28.4208C32.6458 27.8051 32.0074 27.4445 31.3907 27.6159L19.5 30.9252C18.8842 31.0972 18.5236 31.7356 18.695 32.3519Z" fill="#3BB77E"/>
<path d="M23.9301 33.8803C23.2848 34.5255 22.9297 35.3829 22.9297 36.2955C22.9297 37.2077 23.2848 38.0651 23.9301 38.7104C24.5961 39.3759 25.4703 39.7089 26.3448 39.7089C27.2194 39.7089 28.0941 39.3759 28.7601 38.7104C30.0916 37.3787 30.0916 35.2118 28.7601 33.8803C27.4285 32.5487 25.2616 32.5487 23.9301 33.8803ZM27.1217 37.0719C26.6932 37.5004 25.9965 37.5004 25.568 37.0719C25.3603 36.8648 25.2463 36.5888 25.2463 36.2951C25.2463 36.0019 25.3607 35.7259 25.568 35.5182C25.7824 35.3042 26.0638 35.1969 26.3448 35.1969C26.6263 35.1969 26.9077 35.3042 27.1217 35.5182C27.5502 35.9467 27.5502 36.644 27.1217 37.0719Z" fill="#3BB77E"/>
<path d="M29.3326 26.9839C30.6642 25.6519 30.6642 23.4855 29.3326 22.1539C28.6874 21.5088 27.8295 21.1536 26.9173 21.1536C26.0052 21.1536 25.1473 21.5088 24.5026 22.1539C23.171 23.4855 23.171 25.6519 24.5026 26.9839C25.1686 27.6495 26.0428 27.9825 26.9173 27.9825C27.792 27.9825 28.6666 27.6495 29.3326 26.9839ZM26.1405 23.7918C26.3482 23.5842 26.6242 23.4702 26.9173 23.4702C27.211 23.4702 27.487 23.5842 27.6942 23.7918C28.1227 24.2203 28.1227 24.9171 27.6942 25.3456C27.2662 25.7741 26.569 25.7741 26.1405 25.3456C25.7124 24.9171 25.7124 24.2203 26.1405 23.7918Z" fill="#3BB77E"/>
<path d="M11.5189 29.9585C11.0665 29.506 10.333 29.506 9.88055 29.9585L6.58934 33.2497C6.37216 33.4669 6.25 33.7614 6.25 34.0686C6.25 34.3759 6.37216 34.6704 6.58934 34.8876L21.2776 49.5758C21.5034 49.8016 21.8002 49.9148 22.0965 49.9148C22.3929 49.9148 22.6893 49.8016 22.9156 49.5758L44.8761 27.6147C45.3286 27.1622 45.3286 26.4288 44.8761 25.9764L30.1884 11.2886C29.9712 11.0714 29.6766 10.9492 29.3694 10.9492C29.0622 10.9492 28.7676 11.0714 28.5505 11.2886L16.4331 23.4059C15.9807 23.8584 15.9807 24.5918 16.4331 25.0442C16.8851 25.4963 17.6186 25.4963 18.071 25.0442L29.3694 13.7459L42.4193 26.7957L22.0965 47.1185L9.04663 34.0686L11.5189 31.5964C11.9709 31.1439 11.9714 30.4109 11.5189 29.9585Z" fill="#3BB77E"/>
<path d="M44.6662 32.8926C44.3612 32.8926 44.0626 33.0165 43.8472 33.2319C43.6318 33.4473 43.5078 33.7464 43.5078 34.0508C43.5078 34.3554 43.6318 34.6544 43.8472 34.8698C44.0626 35.0852 44.3612 35.2092 44.6662 35.2092C44.9706 35.2092 45.2692 35.0852 45.4851 34.8698C45.7005 34.6544 45.8244 34.3554 45.8244 34.0508C45.8244 33.7464 45.7005 33.4473 45.4851 33.2319C45.2692 33.0165 44.9706 32.8926 44.6662 32.8926Z" fill="#3BB77E"/>
<path d="M14.7971 28.3195C15.0138 28.1042 15.1369 27.8065 15.1369 27.5006C15.1369 27.1961 15.0138 26.8984 14.7971 26.6816C14.5817 26.4663 14.284 26.3423 13.9786 26.3423C13.6736 26.3423 13.375 26.4663 13.1597 26.6816C12.9438 26.897 12.8203 27.1961 12.8203 27.5006C12.8203 27.8065 12.9438 28.1042 13.1597 28.3195C13.3759 28.5363 13.6736 28.6589 13.9786 28.6589C14.284 28.6589 14.5817 28.5363 14.7971 28.3195Z" fill="#3BB77E"/>
</g>
</g>
<defs>
<clipPath id="clip0_6511_1798">
<rect width="60" height="60" fill="white"/>
</clipPath>
</defs>
</svg>
