<svg width="60" height="67" viewBox="0 0 60 67" fill="none" xmlns="http://www.w3.org/2000/svg">
<g clip-path="url(#clip0_6511_1836)">
<g clip-path="url(#clip1_6511_1836)">
<mask id="mask0_6511_1836" style="mask-type:luminance" maskUnits="userSpaceOnUse" x="0" y="0" width="60" height="60">
<path d="M59.6292 0H0.324219V59.305H59.6292V0Z" fill="white"/>
</mask>
<g mask="url(#mask0_6511_1836)">
<path d="M40.284 57.4287C48.805 57.4287 55.7126 50.5211 55.7126 42.0001C55.7126 33.4791 48.805 26.5715 40.284 26.5715C31.7631 26.5715 24.8555 33.4791 24.8555 42.0001C24.8555 50.5211 31.7631 57.4287 40.284 57.4287Z" fill="#FDC040"/>
<path d="M43.4066 25.6726V14.4494C43.4066 14.1281 43.2583 13.8313 43.0483 13.5964L30.4654 0.383235C30.2305 0.136191 29.8966 0 29.5632 0H9.61325C5.93018 0 2.98828 3.00344 2.98828 6.68693V44.4109C2.98828 48.0944 5.93018 51.0485 9.61325 51.0485H25.3607C28.3392 55.9926 33.7534 59.305 39.9209 59.305C49.2901 59.305 56.9412 51.691 56.9412 42.3097C56.9539 34.1147 51.07 27.2672 43.4066 25.6726ZM30.7993 4.33865L39.2413 13.2255H33.7657C32.1341 13.2255 30.7993 11.8785 30.7993 10.2469V4.33865ZM9.61325 48.5763C7.30205 48.5763 5.46053 46.7221 5.46053 44.4109V6.68693C5.46053 4.36309 7.30205 2.47225 9.61325 2.47225H28.327V10.2469C28.327 13.2503 30.7621 15.6977 33.7657 15.6977H40.9345V25.3509C40.5638 25.3388 40.267 25.3017 39.9458 25.3017C35.632 25.3017 31.6644 26.9581 28.6732 29.5539H12.9755C12.2954 29.5539 11.7393 30.11 11.7393 30.7895C11.7393 31.4696 12.2954 32.0257 12.9755 32.0257H26.3742C25.4964 33.2618 24.767 34.4979 24.1987 35.8575H12.9755C12.2954 35.8575 11.7393 36.4137 11.7393 37.0937C11.7393 37.7733 12.2954 38.3298 12.9755 38.3298H23.3952C23.0862 39.566 22.9255 40.9378 22.9255 42.3097C22.9255 44.5344 23.3581 46.7348 24.1368 48.5889H9.61325V48.5763ZM39.9336 56.8455C31.9241 56.8455 25.41 50.3313 25.41 42.3219C25.41 34.3125 31.9114 27.7983 39.9336 27.7983C47.9552 27.7983 54.4567 34.3125 54.4567 42.3219C54.4567 50.3313 47.9431 56.8455 39.9336 56.8455Z" fill="#3BB77E"/>
<path d="M12.9744 25.8333H25.4953C26.1754 25.8333 26.7315 25.2768 26.7315 24.5973C26.7315 23.9172 26.1754 23.3611 25.4953 23.3611H12.9744C12.2943 23.3611 11.7383 23.9172 11.7383 24.5973C11.7383 25.2768 12.2943 25.8333 12.9744 25.8333Z" fill="#3BB77E"/>
<path d="M39.5265 34.6955C39.6256 34.72 39.7243 34.7327 39.8234 34.7327C39.9469 34.7327 40.0582 34.72 40.1695 34.6829C41.801 34.8191 43.0743 36.1787 43.0743 37.8352C43.0743 38.5148 43.6304 39.0708 44.31 39.0708C44.99 39.0708 45.5461 38.5148 45.5461 37.8352C45.5461 35.1159 43.6182 32.8414 41.0594 32.3098V31.5188C41.0594 30.8387 40.503 30.2827 39.8234 30.2827C39.1433 30.2827 38.5872 30.8387 38.5872 31.5188V32.3595C36.115 32.9527 34.2734 35.1901 34.2734 37.8352C34.2734 40.9499 36.8072 43.4715 39.9098 43.4715C41.6527 43.4715 43.0743 44.8927 43.0743 46.6355C43.0743 48.3785 41.6648 49.8123 39.9098 49.8123C38.1669 49.8123 36.7457 48.3906 36.7457 46.6478C36.7457 45.9682 36.1892 45.4116 35.5096 45.4116C34.8296 45.4116 34.2734 45.9682 34.2734 46.6478C34.2734 49.3055 36.115 51.5303 38.5872 52.1235V53.3967C38.5872 54.0767 39.1433 54.6329 39.8234 54.6329C40.503 54.6329 41.0594 54.0767 41.0594 53.3967V52.1606C43.6182 51.6289 45.5461 49.3548 45.5461 46.6355C45.5461 43.5209 43.0123 40.9992 39.9098 40.9992C38.1669 40.9992 36.7457 39.5777 36.7457 37.8352C36.7457 36.228 37.9569 34.8811 39.5265 34.6955Z" fill="#3BB77E"/>
</g>
</g>
</g>
<defs>
<clipPath id="clip0_6511_1836">
<rect width="60" height="60" fill="white"/>
</clipPath>
<clipPath id="clip1_6511_1836">
<rect width="60" height="60" fill="white"/>
</clipPath>
</defs>
</svg>
