<svg width="65.000000" height="50.000000" viewBox="0 0 65 50" fill="none" xmlns="http://www.w3.org/2000/svg" xmlns:xlink="http://www.w3.org/1999/xlink">
	<desc>
			Created with Pixso.
	</desc>
	<defs/>
	<mask id="mask6511_1085" mask-type="alpha" maskUnits="userSpaceOnUse" x="-0.492188" y="-0.977295" width="65.296875" height="50.227295">
		<path id="Vector" d="M-0.5 -0.98L64.8 -0.98L64.8 49.25L-0.5 49.25L-0.5 -0.98Z" fill="#000000" fill-opacity="1.000000" fill-rule="evenodd"/>
	</mask>
	<g mask="url(#mask6511_1085)">
		<g opacity="0.800000">
			<path id="Vector" d="M61.36 17.48C60.44 26.4 54.65 33.1 48.43 32.45C42.22 31.81 37.92 24.06 38.85 15.15C39.77 6.24 45.56 -0.46 51.78 0.18C57.99 0.83 62.28 8.57 61.36 17.48Z" fill="#FDC040" fill-opacity="1.000000" fill-rule="evenodd"/>
		</g>
		<path id="Vector" d="M44.58 17.72C47.48 26.2 45.03 34.71 39.11 36.72C33.2 38.74 26.06 33.51 23.16 25.03C20.27 16.55 22.72 8.04 28.63 6.02C34.55 4 41.69 9.24 44.58 17.72Z" fill="#FDC040" fill-opacity="1.000000" fill-rule="evenodd"/>
		<path id="Vector" d="M22.11 26.64L62.35 26.64C62.67 26.78 63.41 27.31 63.79 28.32C64.28 29.57 65.64 47.99 42.62 44.22C24.5 44.22 20.28 43.66 20.44 43.39C23.78 42.55 24.2 39.2 24.62 36.69C25.04 34.18 22.11 26.64 22.11 26.64Z" fill="#81B13D" fill-opacity="1.000000" fill-rule="nonzero"/>
		<path id="Vector" d="M52.34 9.43C51.82 9.43 51.39 9.85 51.39 10.38L51.39 10.53C51.39 11.06 51.82 11.49 52.34 11.49C52.87 11.49 53.3 11.06 53.3 10.53L53.3 10.38C53.3 9.85 52.87 9.43 52.34 9.43Z" fill="#253D4E" fill-opacity="1.000000" fill-rule="nonzero"/>
		<path id="Vector" d="M54.83 13.69C54.3 13.69 53.87 14.12 53.87 14.65L53.87 14.8C53.87 15.33 54.3 15.76 54.83 15.76C55.35 15.76 55.78 15.33 55.78 14.8L55.78 14.65C55.78 14.12 55.35 13.69 54.83 13.69Z" fill="#253D4E" fill-opacity="1.000000" fill-rule="nonzero"/>
		<path id="Vector" d="M33.88 12.79L33.81 12.66C33.57 12.19 32.99 12.01 32.52 12.25C32.05 12.5 31.87 13.08 32.12 13.54L32.19 13.68C32.36 14.01 32.69 14.19 33.03 14.19C33.18 14.19 33.33 14.16 33.48 14.08C33.94 13.84 34.13 13.26 33.88 12.79Z" fill="#253D4E" fill-opacity="1.000000" fill-rule="nonzero"/>
		<path id="Vector" d="M38.06 15.43L37.99 15.29C37.74 14.82 37.16 14.64 36.7 14.89C36.23 15.13 36.05 15.71 36.29 16.18L36.36 16.31C36.53 16.64 36.87 16.83 37.21 16.83C37.36 16.83 37.51 16.79 37.65 16.72C38.12 16.47 38.3 15.9 38.06 15.43Z" fill="#253D4E" fill-opacity="1.000000" fill-rule="nonzero"/>
		<path id="Vector" d="M32.11 34.46L29.26 31.61C28.89 31.24 28.28 31.24 27.91 31.61C27.54 31.98 27.54 32.59 27.91 32.96L30.76 35.81C30.94 36 31.19 36.09 31.43 36.09C31.68 36.09 31.92 36 32.11 35.81C32.48 35.44 32.48 34.83 32.11 34.46Z" fill="#253D4E" fill-opacity="1.000000" fill-rule="nonzero"/>
		<path id="Vector" d="M40.56 32.67C40.26 32.24 39.66 32.14 39.23 32.45L29.3 39.52C28.87 39.82 28.77 40.42 29.07 40.85C29.26 41.11 29.56 41.25 29.85 41.25C30.05 41.25 30.24 41.2 30.41 41.08L40.34 34.01C40.77 33.7 40.87 33.1 40.56 32.67Z" fill="#253D4E" fill-opacity="1.000000" fill-rule="nonzero"/>
		<path id="Vector" d="M44.07 34.12C43.77 33.69 43.17 33.59 42.74 33.89L38.93 36.61C38.5 36.91 38.4 37.51 38.7 37.94C38.89 38.2 39.19 38.34 39.48 38.34C39.67 38.34 39.87 38.28 40.04 38.16L43.85 35.45C44.28 35.14 44.38 34.55 44.07 34.12Z" fill="#253D4E" fill-opacity="1.000000" fill-rule="nonzero"/>
		<path id="Vector" d="M64.62 29.78C64.31 29.35 63.71 29.25 63.28 29.56L62.96 29.79C62.96 29.71 62.97 29.63 62.97 29.54C62.97 28.63 62.61 27.77 61.96 27.12C61.32 26.48 60.46 26.12 59.55 26.12L59.26 26.12C60.32 24.1 60.85 21.65 60.85 18.83C60.85 13.31 58.78 7.26 55.57 3.44C55.23 3.03 54.62 2.98 54.22 3.32C53.82 3.66 53.76 4.26 54.1 4.67C57.04 8.17 58.94 13.73 58.94 18.83C58.94 21.78 58.3 24.23 57.05 26.12L55.16 26.12L56 25.53C56.43 25.22 56.53 24.62 56.23 24.19C55.92 23.76 55.32 23.66 54.89 23.97L51.86 26.12L46.17 26.12C46.75 23.22 46.15 19.98 44.42 16.66C43.17 14.28 41.41 11.98 39.39 10.04C41.48 4.76 44.93 1.38 48.3 1.38C49.31 1.38 50.33 1.68 51.34 2.26C51.8 2.52 52.38 2.37 52.65 1.91C52.91 1.46 52.76 0.87 52.3 0.61C51 -0.15 49.66 -0.53 48.3 -0.53C44.22 -0.53 40.31 2.97 37.87 8.69C37.05 8.01 36.19 7.39 35.31 6.84C31.19 4.3 27.29 3.75 24.32 5.3C21.59 6.73 19.84 9.89 19.39 14.22C19.34 14.74 19.72 15.21 20.25 15.27C20.77 15.32 21.24 14.94 21.3 14.41C21.67 10.75 23.07 8.12 25.21 6.99C30.43 4.27 39.06 10.53 42.72 17.54C44.35 20.66 44.85 23.54 44.21 26.12L33.49 26.12C33.49 26.12 33.49 26.12 33.48 26.12L28.58 26.12L26.98 24.52C26.6 24.15 26 24.15 25.62 24.52C25.25 24.89 25.25 25.5 25.62 25.87L25.88 26.12L23.25 26.12C22.19 23.7 21.48 20.92 21.27 18.23C21.23 17.7 20.76 17.31 20.24 17.35C19.71 17.39 19.32 17.85 19.36 18.38C19.54 20.57 19.99 22.75 20.69 24.81C17.96 22.49 14.4 21.24 10.74 21.44C10.39 21.46 10.09 21.66 9.93 21.96C8.5 24.81 8.09 28.02 8.69 31.07C8.69 31.16 8.71 31.25 8.74 31.33C8.93 32.2 9.2 33.06 9.55 33.88C5.46 34.52 1.82 36.93 -0.36 40.52C-0.54 40.82 -0.54 41.18 -0.38 41.48C1.16 44.28 3.59 46.43 6.45 47.65C6.52 47.7 6.6 47.73 6.68 47.75C8.26 48.39 9.96 48.76 11.71 48.79C11.8 48.8 11.9 48.8 12 48.8C12.67 48.8 13.35 48.74 14.01 48.65C14.07 48.64 14.14 48.64 14.2 48.62C17.01 48.17 19.62 46.88 21.69 44.94C21.73 44.95 21.78 44.95 21.83 44.95L26.12 44.95C26.65 44.95 27.08 44.53 27.08 44C27.08 43.47 26.65 43.04 26.12 43.04L23.37 43.04C23.62 42.7 23.86 42.35 24.08 41.98C24.09 41.97 24.1 41.96 24.1 41.95C24.11 41.94 24.12 41.93 24.12 41.92C26.35 37.51 26.1 32.21 23.48 28.04L27.79 28.04L30.39 30.64C30.58 30.83 30.83 30.92 31.07 30.92C31.32 30.92 31.56 30.83 31.75 30.64C32.12 30.27 32.12 29.66 31.75 29.29L30.5 28.04L33.09 28.04L36.64 31.59C36.83 31.78 37.07 31.87 37.32 31.87C37.57 31.87 37.81 31.78 38 31.59C38.37 31.21 38.37 30.61 38 30.24L35.8 28.04L44.93 28.04L44.94 28.04L44.94 28.04L49.17 28.04L47.09 29.52C46.66 29.83 46.56 30.43 46.86 30.86C47.05 31.12 47.34 31.26 47.64 31.26C47.83 31.26 48.03 31.2 48.2 31.08L52.48 28.04L57.55 28.04L57.55 28.04L57.56 28.04L59.55 28.04C59.95 28.04 60.33 28.19 60.61 28.48C60.9 28.76 61.05 29.14 61.05 29.54C61.05 30.12 61.02 30.69 60.95 31.24L53.92 36.31C53.5 36.62 53.4 37.21 53.71 37.64C53.89 37.9 54.19 38.04 54.48 38.04C54.68 38.04 54.87 37.98 55.04 37.86L60.26 34.1C59.22 37 57.21 39.44 54.62 41.04L43.96 30.37C43.58 30 42.98 30 42.6 30.37C42.23 30.75 42.23 31.35 42.6 31.73L52.84 41.96C51.46 42.56 49.95 42.92 48.37 43.02L44.2 38.85C43.83 38.47 43.23 38.47 42.85 38.85C42.48 39.22 42.48 39.83 42.85 40.2L45.69 43.04L36.33 43.04L34.8 41.51C34.42 41.13 33.82 41.13 33.44 41.51C33.07 41.88 33.07 42.49 33.44 42.86L33.62 43.04L30.1 43.04C29.58 43.04 29.15 43.47 29.15 44C29.15 44.53 29.58 44.95 30.1 44.95L35.54 44.95L37.69 47.11C37.88 47.3 38.12 47.39 38.37 47.39C38.62 47.39 38.86 47.3 39.05 47.11C39.42 46.74 39.42 46.13 39.05 45.76L38.24 44.95L47.55 44.95C49.97 44.95 52.25 44.4 54.28 43.41L55.09 44.21C55.28 44.4 55.52 44.49 55.76 44.49C56.01 44.49 56.25 44.4 56.44 44.21C56.82 43.84 56.82 43.23 56.44 42.86L56.01 42.42C59.46 40.15 61.94 36.54 62.71 32.33L64.4 31.11C64.83 30.8 64.92 30.21 64.62 29.78ZM21.74 28.86C21.84 29.03 21.94 29.19 22.05 29.36L19.62 34.17L16.86 29.94L18.79 25.75C19.94 26.59 20.94 27.64 21.74 28.86ZM18.58 36.06L13.3 36.33C12.95 35.91 12.62 35.48 12.32 35.02C11.69 34.06 11.21 33.02 10.88 31.95L15.83 31.87L18.58 36.06ZM17.16 24.72L15.62 28.05L12.57 23.38C14.19 23.52 15.75 23.98 17.16 24.72ZM10.97 24.42L14.6 29.97L10.45 30.04C10.19 28.17 10.36 26.24 10.97 24.42ZM10.48 35.69C10.55 35.82 10.63 35.94 10.71 36.07C11.14 36.72 11.62 37.32 12.13 37.89C12.17 37.93 12.21 37.98 12.26 38.02C13.12 38.93 14.09 39.72 15.14 40.37L10.11 40.26L7.74 36.29C8.62 35.99 9.53 35.79 10.48 35.69ZM5.97 37.06L7.85 40.22L2.28 40.1C3.31 38.85 4.56 37.82 5.97 37.06ZM6.58 45.61C4.89 44.77 3.4 43.54 2.24 42.01L8.87 42.15L6.58 45.61ZM13.38 46.8C12.84 46.86 12.3 46.89 11.75 46.88C10.6 46.86 9.47 46.67 8.4 46.34L11.13 42.2L16.14 42.3L13.38 46.8ZM15.99 46.2L18.35 42.34L21.26 42.4C21.32 42.41 21.37 42.41 21.43 42.42C20 44.17 18.1 45.47 15.99 46.2ZM21.37 40.49C19.15 40.28 17.04 39.45 15.26 38.14L19.79 37.91L21.48 40.5L21.37 40.49ZM23.08 39.46L20.83 36.02L23.07 31.59C23.93 34.12 23.94 36.9 23.08 39.46Z" fill="#253D4E" fill-opacity="1.000000" fill-rule="nonzero"/>
		<path id="Vector" d="M55.23 31.42C54.92 30.99 54.32 30.89 53.89 31.2L50.53 33.63C50.1 33.94 50 34.54 50.31 34.97C50.5 35.23 50.79 35.36 51.08 35.36C51.28 35.36 51.48 35.3 51.64 35.18L55.01 32.75C55.44 32.44 55.54 31.85 55.23 31.42Z" fill="#253D4E" fill-opacity="1.000000" fill-rule="nonzero"/>
	</g>
</svg>
