<svg width="16.000000" height="16.000000" viewBox="0 0 16 16" fill="none" xmlns="http://www.w3.org/2000/svg" xmlns:xlink="http://www.w3.org/1999/xlink">
	<desc>
			Created with Pixso.
	</desc>
	<defs/>
	<path id="Vector" d="M6.85 7.05L-0.5 7.05L-0.5 1.72C-0.5 1.19 -0.31 0.72 0.08 0.33C0.47 -0.06 0.95 -0.25 1.52 -0.25L6.85 -0.25L6.85 7.05ZM0.83 5.72L5.52 5.72L5.52 1.08L1.52 1.08C1.31 1.08 1.14 1.14 1.01 1.27C0.89 1.39 0.83 1.54 0.83 1.72L0.83 5.72ZM15.5 7.05L8.19 7.05L8.19 -0.25L13.52 -0.25C14.05 -0.25 14.52 -0.06 14.91 0.33C15.3 0.72 15.5 1.2 15.5 1.77L15.5 7.05ZM9.52 5.72L14.16 5.72L14.16 1.72C14.16 1.54 14.1 1.39 13.98 1.27C13.85 1.14 13.7 1.08 13.52 1.08L9.52 1.08L9.52 5.72ZM6.85 15.75L1.52 15.75C0.95 15.75 0.47 15.55 0.08 15.16C-0.31 14.77 -0.5 14.31 -0.5 13.77L-0.5 8.39L6.85 8.39L6.85 15.75ZM0.83 9.72L0.83 13.72C0.83 13.93 0.89 14.1 1.01 14.23C1.14 14.35 1.31 14.41 1.52 14.41L5.52 14.41L5.52 9.72L0.83 9.72ZM13.52 15.75L8.19 15.75L8.19 8.39L15.5 8.39L15.5 13.72C15.5 14.29 15.3 14.77 14.91 15.16C14.52 15.55 14.04 15.75 13.47 15.75L13.52 15.75ZM9.52 14.41L13.52 14.41C13.7 14.41 13.85 14.35 13.98 14.23C14.1 14.1 14.16 13.93 14.16 13.72L14.16 9.72L9.52 9.72L9.52 14.41Z" fill="#FFFFFF" fill-opacity="1.000000" fill-rule="nonzero"/>
</svg>
