<svg width="30.000000" height="30.000000" viewBox="0 0 30 30" fill="none" xmlns="http://www.w3.org/2000/svg" xmlns:xlink="http://www.w3.org/1999/xlink">
	<desc>
			Created with Pixso.
	</desc>
	<defs>
		<clipPath id="clip6511_7441">
			<rect id="category-3.svg" width="30.000000" height="30.000000" transform="translate(-0.058594 -0.949951)" fill="white" fill-opacity="0"/>
		</clipPath>
		<clipPath id="clip6511_7440">
			<rect id="category-3.svg fill" width="30.000000" height="30.000000" transform="translate(-0.058594 -0.949951)" fill="white" fill-opacity="0"/>
		</clipPath>
		<clipPath id="clip6511_7439">
			<rect id="category-3.svg" width="30.000000" height="30.000000" transform="translate(-0.058594 -0.949951)" fill="white" fill-opacity="0"/>
		</clipPath>
	</defs>
	<g clip-path="url(#clip6511_7439)">
		<g clip-path="url(#clip6511_7440)">
			<g clip-path="url(#clip6511_7441)">
				<mask id="mask6511_7443" mask-type="alpha" maskUnits="userSpaceOnUse" x="-0.058594" y="-0.949951" width="30.000000" height="30.000000">
					<path id="Vector" d="M-0.06 -0.95L29.94 -0.95L29.94 29.05L-0.06 29.05L-0.06 -0.95Z" fill="#000000" fill-opacity="1.000000" fill-rule="evenodd"/>
				</mask>
				<g mask="url(#mask6511_7443)">
					<path id="Vector" d="M8.37 20.42C7.48 20.27 7 20.61 6.87 20.8L6.69 20.98C6.5 21.23 6.12 21.77 6.12 21.92L6.12 23.05C6.12 23.23 6.12 23.8 6.31 24.17C6.5 24.55 6.5 24.73 6.69 24.92C6.87 25.11 7.06 25.3 7.25 25.3C7.44 25.3 8.37 25.48 8.56 25.48L10.62 25.48C11.19 25.48 11.37 25.3 11.75 25.3C12.12 25.3 12.5 25.11 12.5 24.92C12.5 24.73 12.69 24.55 12.87 24.36C13.06 24.17 12.87 23.8 13.06 23.49C13.25 23.18 13.06 23.05 13.06 22.86L13.06 21.92C13.06 21.73 12.87 21.55 12.87 21.36C12.87 21.17 12.5 20.98 12.31 20.8C12.16 20.65 11.75 20.48 11.56 20.42C10.87 20.48 9.27 20.57 8.37 20.42Z" fill="#FDC040" fill-opacity="1.000000" fill-rule="nonzero"/>
					<path id="Vector" d="M25.06 10.67C22.36 11.72 17.19 11.11 14.94 10.67L14.37 11.05L13.44 12.55L12.87 13.86C13.48 14.01 15.25 15.55 16.06 16.29L16.62 17.42C17.98 17.57 18.31 18.73 18.31 19.29L18.5 23.23C21.05 23.98 26.94 22.8 29.56 22.11C29.71 21.81 29.12 18.61 28.81 17.04C28.06 14.8 26 11.86 25.06 10.67Z" fill="#FDC040" fill-opacity="1.000000" fill-rule="nonzero"/>
					<path id="Vector" d="M27.72 13.64C26.83 12 25.94 10.94 25.62 10.59L25.62 8.17L29.78 4.75C29.87 4.67 29.93 4.55 29.94 4.42C29.94 4.3 29.89 4.17 29.79 4.09L26.64 1.27C26.46 1.1 26.18 1.12 26.02 1.3C25.86 1.48 25.87 1.76 26.06 1.92L28.82 4.4L25.62 7.03L25.62 5.24C25.62 4.99 25.42 4.8 25.17 4.8C24.93 4.8 24.74 4.99 24.74 5.24L24.74 10.39C21.6 10.89 18.42 10.89 15.28 10.39L15.28 5.24C15.28 4.99 15.09 4.8 14.85 4.8C14.6 4.8 14.41 4.99 14.41 5.24L14.41 7.03L11.2 4.4L14.62 1.33C15.12 0.88 15.77 0.69 16.4 0.77C16.53 1.32 16.82 2.48 17.28 3.64C18.03 5.54 18.89 6.67 19.87 7.01C19.91 7.03 19.96 7.04 20.01 7.04C20.06 7.04 20.11 7.03 20.16 7.01C21.13 6.67 22 5.54 22.75 3.64C23.2 2.49 23.49 1.33 23.62 0.77C24.01 0.73 24.41 0.78 24.78 0.94C25 1.03 25.26 0.93 25.36 0.71C25.45 0.48 25.35 0.23 25.13 0.13C24 -0.35 22.68 -0.13 21.77 0.7L21.37 1.06C20.59 1.77 19.43 1.77 18.66 1.06L18.25 0.7C17.05 -0.39 15.24 -0.4 14.03 0.68L10.23 4.09C10.14 4.17 10.08 4.3 10.08 4.42C10.09 4.55 10.15 4.67 10.25 4.75L14.41 8.17L14.41 10.59C14.12 10.91 13.38 11.78 12.59 13.13C11.92 12.77 11.21 12.42 10.5 12.06C9.87 11.75 9.24 11.44 8.64 11.12C9.23 10.38 9.68 9.54 9.88 8.56C10.19 7.06 9.74 5.72 8.66 4.88C7.63 4.08 6.21 3.91 5.14 4.44C4.56 4.72 3.58 5.46 3.58 7.21C3.58 8.31 4.29 9.36 5.73 10.4C6.18 10.73 6.69 11.04 7.23 11.35C6.56 12.01 5.79 12.6 5.07 13.15C3.5 14.35 2.02 15.48 1.98 17.01C1.02 17.24 0.28 18.03 0.16 19.04C-0.14 21.33 -0.14 23.65 0.16 25.94C0.3 27.09 1.26 27.97 2.42 28.03C4.75 28.16 7.1 28.22 9.45 28.22C11.8 28.22 14.16 28.16 16.49 28.03C17.65 27.97 18.6 27.09 18.75 25.94C18.84 25.25 18.9 24.57 18.93 23.88C19.29 23.89 19.65 23.89 20.01 23.89C25.75 23.89 29.49 22.55 29.65 22.49C29.82 22.43 29.94 22.27 29.94 22.08C29.94 18.45 28.73 15.49 27.72 13.64ZM18.06 1.71C19.17 2.73 20.85 2.73 21.96 1.71L22.37 1.35C22.45 1.27 22.53 1.2 22.62 1.14C22.47 1.72 22.24 2.52 21.92 3.32C21.19 5.18 20.5 5.88 20.01 6.12C19.52 5.88 18.83 5.18 18.1 3.32C17.78 2.52 17.55 1.72 17.4 1.14C17.49 1.2 17.57 1.27 17.66 1.34L18.06 1.71ZM4.46 7.21C4.46 6.25 4.83 5.57 5.52 5.23C5.81 5.08 6.14 5.02 6.48 5.02C7.05 5.02 7.65 5.21 8.12 5.57C8.6 5.94 9.35 6.79 9.02 8.38C8.85 9.25 8.41 10.01 7.85 10.69C5.95 9.63 4.46 8.5 4.46 7.21ZM2.46 17.82C3.25 17.78 4.03 17.75 4.8 17.72C5.04 17.71 5.23 17.51 5.22 17.26C5.21 17.02 5.01 16.83 4.76 16.84C4.14 16.86 3.51 16.89 2.87 16.92C2.98 15.85 4.21 14.92 5.6 13.85C6.42 13.23 7.29 12.56 8.04 11.8C8.71 12.15 9.41 12.5 10.1 12.85C10.8 13.19 11.5 13.54 12.16 13.89C11.73 14.72 11.3 15.68 10.94 16.77C9.46 16.75 7.99 16.76 6.52 16.79C6.28 16.8 6.09 17 6.09 17.24C6.1 17.48 6.3 17.68 6.54 17.67C9.82 17.6 13.15 17.65 16.44 17.82C17.18 17.86 17.78 18.42 17.88 19.15C17.94 19.63 17.99 20.12 18.02 20.6C17.99 21.09 17.94 21.57 17.88 22.04C17.78 22.77 17.18 23.33 16.44 23.37C15.45 23.42 14.45 23.46 13.46 23.49C13.48 22.87 13.47 22.25 13.42 21.63C13.35 20.79 12.67 20.13 11.84 20.08C10.42 20.01 8.98 20.01 7.56 20.08C6.73 20.13 6.05 20.79 5.98 21.63C5.93 22.25 5.92 22.88 5.94 23.5C4.78 23.47 3.62 23.43 2.46 23.37C1.73 23.33 1.12 22.77 1.03 22.04C0.97 21.58 0.92 21.09 0.88 20.61C0.92 20.12 0.97 19.63 1.03 19.15C1.12 18.42 1.73 17.86 2.46 17.82ZM12.93 14.32C14.36 15.14 15.51 15.99 15.89 16.91C14.55 16.85 13.21 16.81 11.87 16.78C12.18 15.86 12.55 15.04 12.93 14.32ZM12.54 24.17C12.51 24.57 12.19 24.88 11.8 24.91C10.41 24.98 9 24.98 7.6 24.91C7.21 24.88 6.89 24.57 6.86 24.17C6.79 23.35 6.79 22.52 6.86 21.7C6.89 21.3 7.21 20.98 7.6 20.96C8.3 20.92 9 20.9 9.7 20.9C10.4 20.9 11.1 20.92 11.8 20.96C12.19 20.98 12.51 21.3 12.54 21.7C12.61 22.52 12.61 23.35 12.54 24.17ZM16.44 27.16C11.8 27.4 7.1 27.4 2.46 27.16C1.73 27.12 1.12 26.56 1.03 25.83C0.93 25.07 0.87 24.3 0.84 23.54C1.25 23.95 1.8 24.21 2.42 24.24C3.61 24.31 4.81 24.35 6 24.38C6.13 25.15 6.78 25.74 7.56 25.78C8.27 25.82 8.98 25.84 9.7 25.84C10.42 25.84 11.13 25.82 11.84 25.78C12.63 25.74 13.28 25.14 13.4 24.37C14.42 24.34 15.46 24.3 16.49 24.24C17.1 24.21 17.66 23.95 18.07 23.54C18.04 24.3 17.98 25.07 17.88 25.83C17.78 26.56 17.18 27.12 16.44 27.16ZM27.62 22.16C27.53 20.84 27.36 19.52 27.12 18.24C27.07 18 26.84 17.84 26.6 17.89C26.37 17.93 26.21 18.16 26.25 18.4C26.5 19.69 26.66 21.02 26.75 22.35C26.41 22.42 26.03 22.49 25.6 22.56C25.55 20.8 25.36 19.04 25.04 17.32C24.99 17.09 24.76 16.93 24.52 16.97C24.28 17.02 24.13 17.25 24.17 17.49C24.49 19.19 24.68 20.94 24.73 22.7C23.41 22.87 21.82 23.02 20.01 23.02C19.66 23.02 19.31 23.01 18.96 23C18.99 21.68 18.92 20.35 18.75 19.04C18.62 18 17.84 17.19 16.84 16.99C16.52 15.64 15.14 14.57 13.36 13.55C14.07 12.36 14.72 11.56 15.01 11.23C16.67 11.51 18.34 11.65 20.01 11.65C21.68 11.65 23.35 11.51 25.01 11.23C25.34 11.61 26.16 12.61 26.96 14.09C27.89 15.78 28.99 18.48 29.05 21.77C28.77 21.86 28.28 22 27.62 22.16Z" fill="#3BB77E" fill-opacity="1.000000" fill-rule="nonzero"/>
					<path id="Vector" d="M11.46 21.63C10.88 21.6 10.28 21.59 9.7 21.59C9.12 21.59 8.52 21.6 7.94 21.63C7.71 21.64 7.53 21.82 7.52 22.04C7.48 22.63 7.48 23.23 7.52 23.83C7.53 24.05 7.71 24.23 7.94 24.24C8.52 24.27 9.12 24.28 9.7 24.28C10.28 24.28 10.88 24.27 11.46 24.24C11.69 24.23 11.87 24.05 11.88 23.83C11.92 23.23 11.92 22.63 11.88 22.04C11.87 21.82 11.69 21.64 11.46 21.63ZM11.02 23.38C10.14 23.41 9.26 23.41 8.38 23.38C8.37 23.08 8.37 22.79 8.38 22.49C9.26 22.46 10.14 22.46 11.02 22.49C11.03 22.79 11.03 23.08 11.02 23.38Z" fill="#3BB77E" fill-opacity="1.000000" fill-rule="nonzero"/>
				</g>
			</g>
		</g>
	</g>
</svg>
