<svg width="30.000000" height="30.000000" viewBox="0 0 30 30" fill="none" xmlns="http://www.w3.org/2000/svg" xmlns:xlink="http://www.w3.org/1999/xlink">
	<desc>
			Created with Pixso.
	</desc>
	<defs>
		<clipPath id="clip6511_7473">
			<rect id="category-5.svg" width="30.000000" height="30.000000" transform="translate(-0.058594 -0.949951)" fill="white" fill-opacity="0"/>
		</clipPath>
		<clipPath id="clip6511_7472">
			<rect id="category-5.svg fill" width="30.000000" height="30.000000" transform="translate(-0.058594 -0.949951)" fill="white" fill-opacity="0"/>
		</clipPath>
	</defs>
	<g clip-path="url(#clip6511_7472)">
		<g clip-path="url(#clip6511_7473)">
			<path id="Vector" d="M15.31 19.29L22.06 19.29C23.3 19.29 24.31 20.3 24.31 21.55L24.31 26.05C24.31 27.29 23.3 28.3 22.06 28.3L15.31 28.3C14.07 28.3 13.06 27.29 13.06 26.05L13.06 21.55C13.06 20.3 14.07 19.29 15.31 19.29Z" fill="#FDC040" fill-opacity="1.000000" fill-rule="evenodd"/>
			<path id="Vector" d="M2.19 1.86L2.56 2.8L3.69 2.42L5.94 2.23L9.5 2.05L13.25 2.23L19.62 2.8L20.19 2.23L20.56 1.3C20.62 1.05 20.75 0.51 20.75 0.36C20.75 0.21 20.25 0.17 20 0.17L19.44 0.36L18.87 0.55L17.75 0.55C17.56 0.36 17.15 -0.02 17 -0.02C16.85 -0.02 16.56 -0.27 16.44 -0.39L15.5 -0.39L14.94 0.17L14.19 0.55L13.44 0.55L12.5 -0.02L11.56 -0.58L10.62 -0.39L10.06 0.17L9.12 0.55L8.19 0.36C8 0.3 7.58 0.17 7.44 0.17C7.29 0.17 7.12 -0.2 7.06 -0.39L6.5 -0.39L5.75 -0.2C5.62 -0.08 5.33 0.17 5.19 0.17C5 0.17 4.62 0.36 4.62 0.55C4.62 0.73 4.06 0.55 3.87 0.55C3.69 0.55 3.5 0.55 3.31 0.36C3.16 0.21 2.87 0.17 2.75 0.17L2 0.17L1.81 0.92L2.19 1.86Z" fill="#FDC040" fill-opacity="1.000000" fill-rule="nonzero"/>
			<path id="Vector" d="M11.24 18.31C13.23 18.31 15.1 17.73 16.51 16.67C17.97 15.59 18.77 14.13 18.77 12.58C18.77 11.02 17.97 9.57 16.51 8.49C15.1 7.43 13.23 6.85 11.24 6.85C9.25 6.85 7.37 7.43 5.96 8.49C4.51 9.57 3.71 11.02 3.71 12.58C3.71 14.13 4.51 15.59 5.96 16.67C7.37 17.73 9.25 18.31 11.24 18.31ZM4.58 12.58C4.58 9.91 7.57 7.73 11.24 7.73C14.91 7.73 17.89 9.91 17.89 12.58C17.89 15.25 14.91 17.43 11.24 17.43C7.57 17.43 4.58 15.25 4.58 12.58Z" fill="#3BB77E" fill-opacity="1.000000" fill-rule="nonzero"/>
			<path id="Vector" d="M27.76 24.81C28.12 24.53 28.32 24.18 28.32 23.79C28.32 23.41 28.12 23.06 27.76 22.77C28.08 22.55 28.3 22.3 28.41 22.01C28.5 21.75 28.57 21.35 28.31 20.84C28.11 20.45 27.79 20.2 27.39 20.11C26.75 19.96 25.9 20.25 24.86 20.97C24.37 19.63 23.12 18.67 21.62 18.61C21.31 18.59 21 18.58 20.68 18.57C20.98 13.34 20.89 8.04 20.39 2.81C20.56 2.55 20.87 1.97 21.06 1.1C21.18 0.58 20.96 0.07 20.5 -0.2C20.05 -0.47 19.5 -0.41 19.11 -0.07C18.91 0.11 18.73 0.22 18.41 0.22C17.99 0.22 17.8 0.03 17.52 -0.24C17.2 -0.56 16.8 -0.95 16.02 -0.95C15.24 -0.95 14.84 -0.56 14.51 -0.24C14.23 0.03 14.05 0.22 13.63 0.22C13.21 0.22 13.02 0.03 12.74 -0.24C12.42 -0.56 12.01 -0.95 11.24 -0.95C10.46 -0.95 10.06 -0.56 9.73 -0.24C9.45 0.03 9.26 0.22 8.85 0.22C8.43 0.22 8.24 0.03 7.96 -0.24C7.64 -0.56 7.23 -0.95 6.46 -0.95C5.68 -0.95 5.28 -0.56 4.96 -0.24C4.67 0.03 4.48 0.22 4.07 0.22C3.75 0.22 3.56 0.11 3.37 -0.07C2.98 -0.41 2.43 -0.47 1.98 -0.2C1.52 0.07 1.3 0.58 1.41 1.1C1.61 1.97 1.92 2.55 2.08 2.81C2.01 3.61 1.94 4.44 1.88 5.26C1.86 5.5 2.05 5.71 2.29 5.72C2.53 5.74 2.74 5.56 2.76 5.32C2.81 4.55 2.87 3.79 2.94 3.04C8.45 2.37 14.03 2.37 19.53 3.04C20.01 8.19 20.1 13.4 19.8 18.55C18.41 18.53 17.02 18.54 15.64 18.61C14.14 18.67 12.89 19.63 12.4 20.97C11.36 20.25 10.51 19.96 9.87 20.11C9.47 20.2 9.16 20.45 8.96 20.84C8.7 21.35 8.76 21.75 8.86 22.01C8.94 22.22 9.08 22.41 9.28 22.59C7.17 22.53 5.05 22.37 2.94 22.12C2.48 17.12 2.38 12.06 2.65 7.06C2.66 6.82 2.48 6.61 2.23 6.6C1.99 6.59 1.78 6.77 1.77 7.02C1.5 12.12 1.6 17.29 2.08 22.4C1.92 22.66 1.61 23.24 1.41 24.11C1.3 24.63 1.51 25.14 1.98 25.41C2.43 25.68 2.98 25.63 3.37 25.28C3.56 25.11 3.75 25 4.07 25C4.49 25 4.67 25.18 4.96 25.46C5.28 25.78 5.68 26.17 6.46 26.17C7.23 26.17 7.64 25.78 7.96 25.46C8.25 25.18 8.43 25 8.85 25C8.99 25 9.1 25.02 9.21 25.06C9.05 25.22 8.93 25.39 8.86 25.58C8.76 25.83 8.7 26.24 8.96 26.74C9.16 27.13 9.47 27.39 9.87 27.48C9.98 27.5 10.09 27.51 10.21 27.51C10.8 27.51 11.53 27.21 12.4 26.62C12.89 27.95 14.14 28.91 15.64 28.98C16.63 29.02 17.63 29.04 18.63 29.04C19.63 29.04 20.63 29.02 21.62 28.98C23.12 28.91 24.37 27.95 24.86 26.62C25.73 27.21 26.46 27.51 27.05 27.51C27.17 27.51 27.28 27.5 27.39 27.48C27.79 27.39 28.11 27.13 28.31 26.74C28.57 26.24 28.5 25.83 28.41 25.58C28.3 25.29 28.08 25.03 27.76 24.81ZM2.73 2.18C2.6 1.93 2.41 1.5 2.27 0.91C2.22 0.7 2.37 0.59 2.42 0.56C2.48 0.52 2.63 0.46 2.78 0.59C3.05 0.83 3.43 1.1 4.07 1.1C4.84 1.1 5.25 0.7 5.57 0.38C5.85 0.11 6.04 -0.08 6.46 -0.08C6.87 -0.08 7.06 0.11 7.34 0.38C7.67 0.7 8.07 1.1 8.85 1.1C9.62 1.1 10.03 0.7 10.35 0.38C10.63 0.11 10.82 -0.08 11.24 -0.08C11.66 -0.08 11.84 0.11 12.12 0.38C12.45 0.7 12.85 1.1 13.63 1.1C14.41 1.1 14.81 0.7 15.13 0.38C15.41 0.11 15.6 -0.08 16.02 -0.08C16.44 -0.08 16.62 0.11 16.91 0.38C17.23 0.7 17.63 1.1 18.41 1.1C19.04 1.1 19.43 0.83 19.69 0.59C19.84 0.46 20 0.52 20.05 0.56C20.1 0.59 20.25 0.7 20.21 0.91C20.07 1.5 19.88 1.93 19.75 2.18C14.1 1.49 8.38 1.49 2.73 2.18ZM21.1 28.12C20.51 28.14 19.91 28.16 19.32 28.16C19.58 26.23 20.07 24.29 20.77 22.37C20.86 22.14 20.74 21.89 20.51 21.81C20.28 21.72 20.03 21.84 19.95 22.07C19.21 24.09 18.7 26.13 18.43 28.16C17.84 28.16 17.25 28.15 16.66 28.14C17.26 23.8 18.85 20.47 19.39 19.42C19.95 19.43 20.5 19.44 21.05 19.46C20.92 19.72 20.78 20.04 20.61 20.41C20.51 20.63 20.62 20.89 20.84 20.99C20.9 21.02 20.96 21.03 21.01 21.03C21.18 21.03 21.35 20.93 21.42 20.76C21.65 20.24 21.85 19.82 22 19.53C22.52 19.64 22.98 19.88 23.35 20.23C22.66 21.8 21.56 24.66 21.1 28.12ZM7.35 24.83C7.06 25.11 6.88 25.29 6.46 25.29C6.04 25.29 5.85 25.11 5.57 24.83C5.25 24.51 4.84 24.12 4.07 24.12C3.43 24.12 3.05 24.39 2.78 24.62C2.63 24.76 2.48 24.69 2.42 24.66C2.37 24.63 2.22 24.52 2.27 24.31C2.41 23.67 2.63 23.22 2.76 22.98C4.83 23.24 6.92 23.4 8.99 23.46C8.96 23.57 8.94 23.68 8.94 23.79C8.94 23.91 8.96 24.02 9 24.12C8.95 24.12 8.9 24.12 8.85 24.12C8.07 24.12 7.67 24.51 7.35 24.83ZM10.07 26.62C9.97 26.6 9.84 26.55 9.74 26.34C9.62 26.11 9.65 25.97 9.68 25.89C9.77 25.66 10.1 25.42 10.61 25.23C10.78 25.16 10.9 25 10.89 24.81C10.89 24.63 10.78 24.46 10.6 24.4C10.07 24.21 9.82 23.95 9.82 23.79C9.82 23.63 10.07 23.37 10.6 23.18C10.78 23.12 10.89 22.96 10.89 22.77C10.9 22.59 10.78 22.42 10.61 22.36C10.1 22.16 9.77 21.93 9.68 21.69C9.65 21.61 9.62 21.48 9.74 21.24C9.84 21.04 9.97 20.99 10.07 20.97C10.27 20.92 10.88 20.93 12.19 21.9C12.19 21.94 12.19 21.99 12.18 22.03C12.12 23.2 12.12 24.38 12.18 25.55C12.19 25.6 12.19 25.64 12.19 25.69C10.88 26.66 10.27 26.66 10.07 26.62ZM13.06 22.08C13.14 20.66 14.26 19.55 15.68 19.48C15.69 19.48 15.71 19.48 15.72 19.48C15.12 20.72 13.99 23.33 13.36 26.62C13.19 26.29 13.08 25.91 13.06 25.51C13 24.37 13 23.22 13.06 22.08ZM14.1 27.51C14.75 23.51 16.21 20.43 16.72 19.45C17.28 19.43 17.85 19.42 18.41 19.42C17.72 20.83 16.32 24.05 15.78 28.1C15.75 28.1 15.71 28.1 15.68 28.1C15.08 28.07 14.53 27.86 14.1 27.51ZM24.2 25.51C24.14 26.78 23.21 27.81 22 28.05C22.41 25.1 23.3 22.61 23.95 21.06C24.1 21.37 24.18 21.71 24.2 22.08C24.26 23.22 24.26 24.37 24.2 25.51ZM27.53 26.34C27.42 26.55 27.3 26.6 27.2 26.62C26.99 26.66 26.38 26.66 25.07 25.69C25.07 25.64 25.08 25.6 25.08 25.55C25.14 24.38 25.14 23.2 25.08 22.03C25.08 21.99 25.07 21.94 25.07 21.9C26.38 20.93 26.99 20.92 27.2 20.97C27.3 20.99 27.42 21.04 27.53 21.24C27.64 21.48 27.62 21.61 27.58 21.69C27.5 21.93 27.16 22.16 26.65 22.36C26.48 22.42 26.37 22.59 26.37 22.77C26.37 22.96 26.49 23.12 26.66 23.18C27.2 23.37 27.44 23.63 27.44 23.79C27.44 23.95 27.2 24.21 26.66 24.4C26.49 24.46 26.37 24.63 26.37 24.81C26.37 25 26.48 25.16 26.65 25.23C27.16 25.42 27.5 25.66 27.58 25.89C27.62 25.97 27.64 26.11 27.53 26.34Z" fill="#3BB77E" fill-opacity="1.000000" fill-rule="nonzero"/>
			<path id="Vector" d="M8.3 11.13C10.25 10.87 12.23 10.87 14.18 11.13C14.2 11.13 14.22 11.13 14.24 11.13C14.45 11.13 14.64 10.97 14.67 10.75C14.7 10.51 14.53 10.29 14.29 10.26C12.26 9.99 10.21 9.99 8.18 10.26C7.94 10.29 7.77 10.51 7.8 10.75C7.83 10.99 8.06 11.16 8.3 11.13Z" fill="#3BB77E" fill-opacity="1.000000" fill-rule="nonzero"/>
			<path id="Vector" d="M14.67 14.52C14.64 14.28 14.42 14.11 14.18 14.14C12.23 14.4 10.25 14.4 8.3 14.14C8.06 14.11 7.83 14.28 7.8 14.52C7.77 14.76 7.94 14.98 8.18 15.02C9.19 15.15 10.22 15.22 11.24 15.22C12.26 15.22 13.28 15.15 14.29 15.02C14.53 14.98 14.7 14.76 14.67 14.52Z" fill="#3BB77E" fill-opacity="1.000000" fill-rule="nonzero"/>
			<path id="Vector" d="M15.86 12.64C15.86 12.39 15.66 12.2 15.42 12.2L7.05 12.2C6.81 12.2 6.61 12.39 6.61 12.64C6.61 12.88 6.81 13.08 7.05 13.08L15.42 13.08C15.66 13.08 15.86 12.88 15.86 12.64Z" fill="#3BB77E" fill-opacity="1.000000" fill-rule="nonzero"/>
		</g>
	</g>
</svg>
