<svg width="30.000000" height="30.000000" viewBox="0 0 30 30" fill="none" xmlns="http://www.w3.org/2000/svg" xmlns:xlink="http://www.w3.org/1999/xlink">
	<desc>
			Created with Pixso.
	</desc>
	<defs>
		<clipPath id="clip6511_7424">
			<rect id="category-2.svg" width="30.000000" height="30.000000" transform="translate(-0.058594 -0.950012)" fill="white" fill-opacity="0"/>
		</clipPath>
		<clipPath id="clip6511_7423">
			<rect id="category-2.svg fill" width="30.000000" height="30.000000" transform="translate(-0.058594 -0.950012)" fill="white" fill-opacity="0"/>
		</clipPath>
		<clipPath id="clip6511_7422">
			<rect id="category-2.svg" width="30.000000" height="30.000000" transform="translate(-0.058594 -0.950012)" fill="white" fill-opacity="0"/>
		</clipPath>
	</defs>
	<g clip-path="url(#clip6511_7422)">
		<g clip-path="url(#clip6511_7423)">
			<g clip-path="url(#clip6511_7424)">
				<mask id="mask6511_7426" mask-type="alpha" maskUnits="userSpaceOnUse" x="-0.058594" y="-0.950012" width="30.000000" height="30.000000">
					<path id="Vector" d="M-0.06 -0.96L29.94 -0.96L29.94 29.05L-0.06 29.05L-0.06 -0.96Z" fill="#000000" fill-opacity="1.000000" fill-rule="evenodd"/>
				</mask>
				<g mask="url(#mask6511_7426)">
					<path id="Vector" d="M24.12 12.36L12.87 12.36L12.87 13.11L13.06 13.48L14 14.42L14.75 14.8L15.12 15.36L14.94 16.11L13.62 16.67L12.87 17.98L12.69 21.92L13.25 26.23L13.62 27.55L14.37 28.3C14.56 28.36 15.01 28.48 15.31 28.48C15.69 28.48 17.37 28.67 17.75 28.67L19.81 28.67L21.12 28.67L20.75 27.92C20.62 27.61 20.37 26.87 20.37 26.42C20.37 25.97 20.25 24.73 20.19 24.17L20.19 21.36C20.19 21.06 20.56 18.86 20.75 17.79L20.75 17.23C20.75 17.04 21.31 17.04 21.5 16.86C21.69 16.67 22.25 16.67 22.44 16.67C22.62 16.67 23.19 16.48 23.37 16.48C23.56 16.48 23.19 16.29 23 16.11C22.81 15.92 23 15.92 23 15.73C23 15.55 23 15.17 22.81 14.98C22.66 14.83 23.12 14.55 23.37 14.42C23.56 14.36 23.94 14.2 23.94 14.05C23.94 13.9 24.31 13.73 24.5 13.67L24.87 13.11L24.87 12.55L24.12 12.36Z" fill="#FDC040" fill-opacity="1.000000" fill-rule="nonzero"/>
					<path id="Vector" d="M2.77 22.14C2.77 23.08 3.53 23.85 4.47 23.85C5.41 23.85 6.17 23.08 6.17 22.14C6.17 21.2 5.41 20.44 4.47 20.44C3.53 20.44 2.77 21.2 2.77 22.14ZM5.3 22.14C5.3 22.6 4.92 22.97 4.47 22.97C4.02 22.97 3.65 22.6 3.65 22.14C3.65 21.69 4.02 21.32 4.47 21.32C4.92 21.32 5.3 21.69 5.3 22.14Z" fill="#3BB77E" fill-opacity="1.000000" fill-rule="nonzero"/>
					<path id="Vector" d="M6.64 19.79C7.38 19.79 7.98 19.19 7.98 18.45C7.98 17.71 7.38 17.11 6.64 17.11C5.9 17.11 5.3 17.71 5.3 18.45C5.3 19.19 5.9 19.79 6.64 19.79ZM6.64 17.99C6.89 17.99 7.1 18.2 7.1 18.45C7.1 18.71 6.89 18.92 6.64 18.92C6.38 18.92 6.17 18.71 6.17 18.45C6.17 18.2 6.38 17.99 6.64 17.99Z" fill="#3BB77E" fill-opacity="1.000000" fill-rule="nonzero"/>
					<path id="Vector" d="M11.32 25.29C11.32 24.55 10.71 23.95 9.97 23.95C9.23 23.95 8.63 24.55 8.63 25.29C8.63 26.03 9.23 26.64 9.97 26.64C10.71 26.64 11.32 26.03 11.32 25.29ZM9.51 25.29C9.51 25.04 9.72 24.83 9.97 24.83C10.23 24.83 10.44 25.04 10.44 25.29C10.44 25.55 10.23 25.76 9.97 25.76C9.72 25.76 9.51 25.55 9.51 25.29Z" fill="#3BB77E" fill-opacity="1.000000" fill-rule="nonzero"/>
					<path id="Vector" d="M29 17.88C28.87 16.96 28.07 16.27 27.15 16.27L26.83 16.27L27.14 15.49C27.22 15.26 27.11 15 26.88 14.92C26.66 14.83 26.4 14.94 26.32 15.17L25.89 16.27L24.07 16.27C24 16.24 23.94 16.21 23.88 16.18C23.42 16.01 23.19 15.75 23.19 15.4C23.19 15.07 23.75 14.8 23.98 14.7C24.69 14.4 25.2 13.78 25.34 13.02C25.64 11.46 25.77 9.78 25.83 8.93C25.85 8.48 25.75 8.04 25.53 7.66C24.39 5.67 22.31 4.31 21.61 3.89L21.61 2.49L21.64 2.49C21.88 2.49 22.08 2.29 22.08 2.05L22.08 0.47C22.08 -0.32 21.44 -0.96 20.65 -0.96L17.17 -0.96C16.39 -0.96 15.75 -0.32 15.75 0.47L15.75 2.05C15.75 2.29 15.94 2.49 16.19 2.49L16.21 2.49L16.21 3.89C15.76 4.16 14.74 4.82 13.76 5.79L13.76 5.49C14.26 5.22 14.6 4.69 14.6 4.08C14.6 3.2 13.88 2.48 13 2.48L6.05 2.48C5.17 2.48 4.46 3.2 4.46 4.08C4.46 4.69 4.8 5.22 5.3 5.49L5.3 6.83C4.69 7.18 3.06 8.23 1.62 9.95C1.36 10.27 1.2 10.64 1.14 11.05C1.07 11.59 0.97 12.48 0.86 13.62C0.84 13.86 1.02 14.07 1.26 14.1C1.27 14.1 1.29 14.1 1.3 14.1C1.52 14.1 1.71 13.93 1.74 13.7C1.84 12.57 1.94 11.7 2.01 11.16C2.04 10.99 2.1 10.82 2.19 10.67L12.14 10.67C12.22 11.41 12.33 12.23 12.48 13.02C12.62 13.78 13.13 14.4 13.84 14.7C14.08 14.8 14.64 15.07 14.64 15.4C14.64 15.75 14.41 16.01 13.95 16.18C13.13 16.49 12.55 17.25 12.48 18.11C12.3 20.1 12.17 23.95 13.26 27.38C13.35 27.67 13.49 27.93 13.67 28.16C13.59 28.16 13.5 28.17 13.42 28.17L5.64 28.17C3.51 28.17 1.73 26.51 1.57 24.39C1.37 21.66 1.38 18.65 1.6 15.44C1.61 15.2 1.43 14.99 1.19 14.97C0.95 14.96 0.74 15.14 0.72 15.38C0.5 18.63 0.49 21.69 0.69 24.46C0.78 25.71 1.34 26.87 2.26 27.72C3.18 28.58 4.38 29.05 5.64 29.05L13.42 29.05C13.84 29.05 14.26 28.99 14.67 28.89C14.94 28.99 15.23 29.04 15.53 29.04L27.15 29.05C28.07 29.05 28.87 28.35 29 27.43C29.43 24.26 29.43 21.05 29 17.88ZM28.4 24.32C28.05 24.53 27.66 24.64 27.24 24.64C26.01 24.64 25.01 23.64 25.01 22.41C25.01 21.18 26.01 20.18 27.24 20.18C27.64 20.18 28.03 20.28 28.37 20.49C28.46 21.76 28.46 23.04 28.4 24.32ZM24.95 8.87C24.91 9.54 24.82 10.72 24.63 11.95L13.19 11.95C13.01 10.73 12.92 9.54 12.87 8.87C12.86 8.6 12.92 8.33 13.05 8.1C13.1 8.01 13.16 7.92 13.22 7.83L24.6 7.83C24.66 7.92 24.72 8.01 24.77 8.1C24.91 8.33 24.97 8.6 24.95 8.87ZM6.17 5.68L12.88 5.68L12.88 6.65L6.17 6.65L6.17 5.68ZM16.63 0.47C16.63 0.17 16.87 -0.08 17.17 -0.08L20.65 -0.08C20.95 -0.08 21.2 0.17 21.2 0.47L21.2 1.61L16.63 1.61L16.63 0.47ZM20.73 2.49L20.73 3.71L17.09 3.71L17.09 2.49L20.73 2.49ZM16.76 4.59L21.06 4.59C21.43 4.8 22.82 5.66 23.94 6.95L13.89 6.95C15 5.66 16.39 4.8 16.76 4.59ZM6.05 3.36L13 3.36C13.4 3.36 13.72 3.68 13.72 4.08C13.72 4.48 13.4 4.8 13 4.8L6.05 4.8C5.66 4.8 5.33 4.48 5.33 4.08C5.33 3.68 5.66 3.36 6.05 3.36ZM2.95 9.8C4.22 8.5 5.5 7.72 5.85 7.53L12.37 7.53C12.34 7.57 12.32 7.62 12.29 7.66C12.07 8.04 11.97 8.48 12 8.93C12.01 9.16 12.03 9.46 12.06 9.8L2.95 9.8ZM27.15 28.17L22.29 28.17L21.98 28.17C21.49 28.16 21.07 27.8 21.01 27.31C20.94 26.81 20.88 26.3 20.83 25.8C20.81 25.56 20.6 25.38 20.36 25.41C20.12 25.43 19.94 25.64 19.96 25.88C20.01 26.39 20.07 26.91 20.14 27.43C20.17 27.7 20.27 27.95 20.41 28.17L15.53 28.17C14.87 28.17 14.29 27.74 14.1 27.12C13.06 23.83 13.18 20.11 13.35 18.18C13.4 17.66 13.75 17.2 14.25 17.01C15.05 16.71 15.51 16.12 15.51 15.4C15.51 14.96 15.28 14.35 14.18 13.89C13.74 13.71 13.43 13.32 13.34 12.86C13.34 12.85 13.34 12.84 13.34 12.83L24.49 12.83C24.48 12.84 24.48 12.85 24.48 12.86C24.39 13.32 24.08 13.71 23.64 13.89C22.54 14.35 22.31 14.96 22.31 15.4C22.31 15.72 22.4 16.01 22.57 16.27L21.99 16.27C21.06 16.27 20.26 16.96 20.14 17.88C19.85 19.94 19.75 22.04 19.84 24.12C19.85 24.36 20.06 24.55 20.3 24.54C20.54 24.53 20.73 24.32 20.72 24.08C20.64 22.05 20.73 20.01 21.01 18C21.07 17.51 21.5 17.14 21.99 17.14L27.15 17.14C27.64 17.14 28.06 17.51 28.12 18C28.19 18.49 28.25 18.99 28.3 19.48C27.96 19.36 27.6 19.3 27.24 19.3C25.52 19.3 24.13 20.69 24.13 22.41C24.13 24.13 25.52 25.52 27.24 25.52C27.62 25.52 27.99 25.45 28.34 25.32C28.29 25.99 28.22 26.65 28.12 27.31C28.06 27.8 27.64 28.17 27.15 28.17Z" fill="#3BB77E" fill-opacity="1.000000" fill-rule="nonzero"/>
				</g>
			</g>
		</g>
	</g>
</svg>
