<svg width="30.000000" height="30.000000" viewBox="0 0 30 30" fill="none" xmlns="http://www.w3.org/2000/svg" xmlns:xlink="http://www.w3.org/1999/xlink">
	<desc>
			Created with Pixso.
	</desc>
	<defs>
		<clipPath id="clip6511_7409">
			<rect id="category-1.svg" width="30.000000" height="30.000000" transform="translate(-0.058594 -0.950012)" fill="white" fill-opacity="0"/>
		</clipPath>
		<clipPath id="clip6511_7408">
			<rect id="category-1.svg fill" width="30.000000" height="30.000000" transform="translate(-0.058594 -0.950012)" fill="white" fill-opacity="0"/>
		</clipPath>
	</defs>
	<g clip-path="url(#clip6511_7408)">
		<g clip-path="url(#clip6511_7409)">
			<path id="Vector" d="M3.69 10.67L3.31 8.61L3.31 6.73C3.37 6.29 3.54 5.42 3.69 5.42C3.83 5.42 4.81 5.04 5.56 4.86L7.06 4.67C7.44 4.67 7.62 4.67 9.5 4.29C9.65 4.27 10.62 4.11 11 4.11L10.44 3.36L11.19 4.11L11.94 4.86L12.12 5.42C11.87 5.48 11.3 5.61 11 5.61L9.5 5.61L8.75 5.98L8.75 6.54C8.75 6.7 8.62 7.98 8.56 8.61L8.37 10.48L7.62 10.67L4.06 10.67L3.69 10.67Z" fill="#FDC040" fill-opacity="1.000000" fill-rule="nonzero"/>
			<path id="Vector" d="M17.56 5.61L18.31 4.67L20.75 2.98L23.56 1.86C24.44 1.61 26.41 1.22 27.31 1.67C28.44 2.23 28.62 2.42 29.56 4.11C29.5 5.42 29.26 8.16 28.81 8.61L27.87 10.3L27.31 10.67L24.5 10.67L20.37 10.67L19.06 10.67L19.06 9.36C19.06 9.17 18.87 7.86 18.87 7.67L18.87 6.55L18.69 5.8L18.31 5.61L17.56 5.61Z" fill="#FDC040" fill-opacity="1.000000" fill-rule="nonzero"/>
			<path id="Vector" d="M21.48 4.28C21.21 4.54 21.07 4.88 21.07 5.25C21.07 5.62 21.21 5.97 21.48 6.23L24.67 9.42C24.93 9.68 25.27 9.83 25.64 9.83C26.01 9.83 26.36 9.68 26.62 9.42C26.88 9.16 27.02 8.82 27.02 8.45C27.02 8.08 26.88 7.73 26.62 7.47L23.43 4.28C22.89 3.74 22.01 3.74 21.48 4.28ZM26 8.09C26.09 8.19 26.14 8.31 26.14 8.45C26.14 8.58 26.09 8.71 26 8.8C25.91 8.9 25.78 8.95 25.64 8.95C25.51 8.95 25.38 8.9 25.29 8.8L22.1 5.61C22 5.51 21.95 5.39 21.95 5.25C21.95 5.12 22 4.99 22.1 4.9C22.19 4.8 22.32 4.75 22.45 4.75C22.58 4.75 22.71 4.8 22.8 4.9L26 8.09Z" fill="#3BB77E" fill-opacity="1.000000" fill-rule="nonzero"/>
			<path id="Vector" d="M29.83 12.37C29.65 11.46 28.99 10.73 28.15 10.42C30.23 6.95 30.52 3.71 28.85 2.04C28.13 1.31 27.07 0.94 25.8 0.96C25.55 0.97 25.36 1.17 25.37 1.41C25.37 1.65 25.57 1.84 25.81 1.84C25.81 1.84 25.81 1.84 25.82 1.84C26.85 1.82 27.67 2.1 28.23 2.66C29.11 3.54 29.13 4.86 29 5.82C28.81 7.18 28.19 8.71 27.22 10.26C24.69 10.21 22.14 10.18 19.59 10.16C19.57 8.66 19.48 7.15 19.31 5.65C19.29 5.45 19.13 5.28 18.92 5.26C18.79 5.25 18.66 5.24 18.53 5.22C20.39 3.65 22.37 2.55 24.19 2.08C24.43 2.02 24.57 1.78 24.51 1.54C24.45 1.31 24.21 1.17 23.98 1.23C23.28 1.41 22.55 1.67 21.83 2.02C21.97 1.4 22.04 0.67 21.77 0.12C21.61 -0.21 21.34 -0.44 20.99 -0.54C20.48 -0.68 19.68 -0.6 18.8 0.56C18.75 0.62 18.71 0.67 18.67 0.73C18.67 0.71 18.66 0.7 18.66 0.68C18.48 0.1 18.03 -0.87 16.94 -0.87C16.55 -0.87 16.23 -0.72 15.98 -0.43C15.66 -0.06 15.51 0.52 15.46 1.1C15.08 0.59 14.61 0.19 14.11 0.19C13.78 0.19 13.48 0.35 13.27 0.66C12.71 1.45 12.69 3.18 13.22 4.99C13.09 5 12.96 5 12.83 5C11.96 4 10.92 3.31 10.47 3.03L10.47 2.07C10.67 2.03 10.83 1.85 10.83 1.63L10.83 0.39C10.83 -0.28 10.29 -0.82 9.62 -0.82L6.89 -0.82C6.22 -0.82 5.67 -0.28 5.67 0.39L5.67 1.63C5.67 1.85 5.83 2.03 6.04 2.07L6.04 3.03C5.44 3.39 3.86 4.45 2.97 5.99C2.79 6.31 2.71 6.67 2.73 7.04C2.77 7.71 2.88 9.03 3.11 10.25C2.93 10.26 2.75 10.26 2.57 10.26C1.35 10.29 0.28 11.17 0.04 12.37C-0.1 13.07 -0.1 13.78 0.04 14.48C0.22 15.36 0.84 16.09 1.67 16.41C1.71 17.3 1.8 18.57 1.93 20.02C1.57 21.05 1.21 22.07 0.87 23.1C0.57 23.98 0.97 24.96 1.8 25.38C2.11 25.54 2.44 25.66 2.78 25.75C3.09 26.64 3.65 27.41 4.41 27.99C5.26 28.63 6.26 28.96 7.32 28.96L22.56 28.96C23.61 28.96 24.62 28.63 25.46 27.99C26.22 27.41 26.78 26.64 27.1 25.75C27.44 25.66 27.77 25.54 28.08 25.38C28.9 24.96 29.3 23.98 29 23.1C28.66 22.07 28.3 21.05 27.94 20.02C28.07 18.57 28.16 17.3 28.21 16.41C29.03 16.08 29.65 15.36 29.83 14.48C29.97 13.78 29.97 13.07 29.83 12.37ZM18.48 6.1C18.62 7.45 18.7 8.81 18.71 10.16C15.45 10.14 12.19 10.14 8.93 10.17C8.94 8.82 9.02 7.46 9.17 6.1C12.26 5.79 15.39 5.79 18.48 6.1ZM13.99 1.16C14.02 1.12 14.07 1.07 14.11 1.07C14.42 1.07 15.09 1.97 15.56 3.04C15.64 3.23 15.84 3.34 16.05 3.31C16.25 3.27 16.41 3.09 16.41 2.87C16.41 2.85 16.41 2.82 16.4 2.79C16.18 1.31 16.42 0.39 16.64 0.14C16.73 0.05 16.81 0.01 16.94 0.01C17.95 0.01 17.98 2.02 17.98 2.04C17.98 2.25 18.13 2.43 18.33 2.47C18.53 2.52 18.74 2.41 18.82 2.22C19.14 1.51 20.02 0.11 20.76 0.31C20.86 0.34 20.93 0.4 20.98 0.5C21.17 0.89 21.07 1.73 20.74 2.59C19.58 3.26 18.42 4.11 17.32 5.12C16.26 5.04 15.2 5 14.14 4.99C13.53 3.07 13.67 1.61 13.99 1.16ZM9.59 2.84L6.92 2.84L6.92 2.07L9.59 2.07L9.59 2.84ZM6.89 0.06L9.62 0.06C9.8 0.06 9.95 0.21 9.95 0.39L9.95 1.19L6.55 1.19L6.55 0.39C6.55 0.21 6.7 0.06 6.89 0.06ZM3.98 10.1C3.75 8.92 3.65 7.64 3.61 6.98C3.6 6.79 3.64 6.6 3.73 6.43C4.57 4.97 6.19 3.96 6.59 3.72L9.91 3.72C10.17 3.87 10.92 4.34 11.65 5.04C10.67 5.08 9.69 5.16 8.72 5.26C8.51 5.28 8.35 5.45 8.33 5.65C8.16 7.16 8.07 8.68 8.05 10.18C6.7 10.2 5.35 10.21 4.01 10.24C4 10.19 3.98 10.15 3.98 10.1ZM2.56 16.59C2.56 16.59 2.57 16.59 2.57 16.59L2.58 16.59C2.78 16.59 2.98 16.59 3.17 16.6C3 17.07 2.82 17.54 2.65 18.02C2.61 17.48 2.58 17 2.56 16.59ZM22.56 28.08L7.32 28.08C5.76 28.08 4.36 27.15 3.73 25.76C4.3 25.62 4.8 25.2 5.03 24.62C5.29 23.97 5.52 23.38 5.74 22.8C5.82 22.57 5.71 22.32 5.48 22.23C5.26 22.14 5 22.26 4.92 22.48C4.7 23.06 4.47 23.65 4.22 24.29C4.03 24.76 3.54 25.03 3.06 24.91C2.76 24.84 2.47 24.74 2.19 24.6C1.75 24.38 1.55 23.85 1.7 23.38C2.83 20.03 4.06 16.65 5.36 13.34C5.54 12.88 6.03 12.61 6.51 12.72C6.82 12.8 7.11 12.9 7.38 13.04C7.82 13.26 8.03 13.79 7.87 14.26C7.13 16.45 6.35 18.67 5.54 20.84C5.45 21.07 5.57 21.32 5.8 21.41C6.02 21.49 6.28 21.38 6.36 21.15C6.91 19.67 7.45 18.17 7.98 16.67C10.28 16.69 12.61 16.7 14.94 16.7C17.26 16.7 19.59 16.69 21.9 16.67C22.83 19.33 23.81 22 24.84 24.62C25.07 25.2 25.57 25.62 26.15 25.76C25.51 27.15 24.11 28.08 22.56 28.08ZM27.68 24.6C27.41 24.74 27.11 24.84 26.81 24.91C26.33 25.02 25.84 24.76 25.66 24.29C24.36 21 23.13 17.62 22 14.26C21.84 13.78 22.05 13.26 22.49 13.04C22.76 12.9 23.06 12.79 23.36 12.72C23.43 12.71 23.51 12.7 23.58 12.7C23.98 12.7 24.36 12.95 24.51 13.34C25.81 16.64 27.04 20.02 28.17 23.38C28.33 23.85 28.12 24.38 27.68 24.6ZM26.7 16.6C26.9 16.59 27.09 16.59 27.29 16.59L27.31 16.59C27.31 16.59 27.31 16.59 27.32 16.59C27.29 17 27.26 17.48 27.22 18.02C27.05 17.54 26.87 17.07 26.7 16.6ZM28.97 14.31C28.83 14.96 28.33 15.49 27.67 15.66C27.55 15.69 27.42 15.7 27.29 15.71L27.27 15.71C26.97 15.71 26.67 15.72 26.37 15.72C26.03 14.82 25.69 13.92 25.33 13.02C25 12.15 24.06 11.66 23.16 11.87C22.79 11.95 22.43 12.09 22.09 12.26C21.27 12.67 20.87 13.65 21.17 14.54C21.31 14.96 21.45 15.37 21.6 15.79C17.17 15.84 12.7 15.84 8.28 15.79C8.42 15.37 8.56 14.96 8.7 14.54C9 13.65 8.6 12.67 7.78 12.26C7.44 12.09 7.08 11.96 6.71 11.87C5.82 11.66 4.88 12.15 4.54 13.02C4.19 13.92 3.84 14.82 3.5 15.72C3.2 15.72 2.9 15.71 2.6 15.71L2.58 15.71C2.45 15.7 2.32 15.69 2.19 15.66C1.55 15.49 1.04 14.96 0.91 14.31C0.78 13.72 0.78 13.13 0.91 12.54C1.07 11.75 1.77 11.16 2.58 11.14C10.78 10.98 19.09 10.98 27.29 11.14C28.1 11.16 28.81 11.75 28.97 12.54C29.09 13.13 29.09 13.72 28.97 14.31Z" fill="#3BB77E" fill-opacity="1.000000" fill-rule="nonzero"/>
			<path id="Vector" d="M9.13 18.21L9.1 18.21C8.09 18.21 7.28 19.01 7.25 20.02C7.21 21.21 7.21 22.42 7.25 23.61C7.28 24.62 8.09 25.41 9.1 25.42L9.13 25.42C10.13 25.41 10.94 24.62 10.98 23.61C11.01 22.42 11.01 21.21 10.98 20.02C10.94 19.01 10.13 18.21 9.13 18.21ZM10.1 23.58C10.08 24.11 9.64 24.54 9.12 24.54L9.1 24.54C8.58 24.54 8.14 24.11 8.13 23.58C8.09 22.41 8.09 21.22 8.13 20.04C8.14 19.52 8.58 19.09 9.1 19.09L9.12 19.09C9.64 19.09 10.08 19.52 10.1 20.04C10.13 21.22 10.13 22.41 10.1 23.58Z" fill="#3BB77E" fill-opacity="1.000000" fill-rule="nonzero"/>
			<path id="Vector" d="M14.95 18.21L14.92 18.21C13.92 18.21 13.1 19.01 13.07 20.02C13.04 21.21 13.04 22.42 13.07 23.61C13.1 24.62 13.92 25.41 14.92 25.42L14.95 25.42C15.96 25.41 16.77 24.62 16.8 23.61C16.83 22.42 16.83 21.21 16.8 20.02C16.77 19.01 15.96 18.21 14.95 18.21ZM15.92 23.58C15.91 24.11 15.47 24.54 14.95 24.54L14.92 24.54C14.4 24.54 13.97 24.11 13.95 23.58C13.92 22.41 13.92 21.22 13.95 20.04C13.97 19.52 14.4 19.09 14.92 19.09L14.95 19.09C15.47 19.09 15.91 19.52 15.92 20.04C15.96 21.22 15.96 22.41 15.92 23.58Z" fill="#3BB77E" fill-opacity="1.000000" fill-rule="nonzero"/>
			<path id="Vector" d="M20.78 18.21L20.75 18.21C19.74 18.21 18.93 19.01 18.9 20.02C18.86 21.21 18.86 22.42 18.9 23.61C18.93 24.62 19.74 25.41 20.75 25.42L20.78 25.42C21.78 25.41 22.59 24.62 22.62 23.61C22.66 22.42 22.66 21.21 22.62 20.02C22.59 19.01 21.78 18.21 20.78 18.21ZM21.75 23.58C21.73 24.11 21.29 24.54 20.77 24.54L20.75 24.54C20.23 24.54 19.79 24.11 19.78 23.58C19.74 22.41 19.74 21.22 19.78 20.04C19.79 19.52 20.23 19.09 20.75 19.09L20.77 19.09C21.29 19.09 21.73 19.52 21.75 20.04C21.78 21.22 21.78 22.41 21.75 23.58Z" fill="#3BB77E" fill-opacity="1.000000" fill-rule="nonzero"/>
		</g>
	</g>
</svg>
