<svg width="30.000000" height="30.000000" viewBox="0 0 30 30" fill="none" xmlns="http://www.w3.org/2000/svg" xmlns:xlink="http://www.w3.org/1999/xlink">
	<desc>
			Created with Pixso.
	</desc>
	<defs>
		<clipPath id="clip6511_7457">
			<rect id="category-4.svg" width="30.000000" height="30.000000" transform="translate(-0.058594 -0.949951)" fill="white" fill-opacity="0"/>
		</clipPath>
		<clipPath id="clip6511_7456">
			<rect id="category-4.svg fill" width="30.000000" height="30.000000" transform="translate(-0.058594 -0.949951)" fill="white" fill-opacity="0"/>
		</clipPath>
		<clipPath id="clip6511_7455">
			<rect id="category-4.svg" width="30.000000" height="30.000000" transform="translate(-0.058594 -0.949951)" fill="white" fill-opacity="0"/>
		</clipPath>
	</defs>
	<g clip-path="url(#clip6511_7455)">
		<g clip-path="url(#clip6511_7456)">
			<g clip-path="url(#clip6511_7457)">
				<path id="Vector" d="M17.94 12.17C17.94 15.9 14.75 18.92 10.81 18.92C6.88 18.92 3.69 15.9 3.69 12.17C3.69 8.44 6.88 5.42 10.81 5.42C14.75 5.42 17.94 8.44 17.94 12.17Z" fill="#FDC040" fill-opacity="1.000000" fill-rule="evenodd"/>
				<path id="Vector" d="M10.89 19.48C15.18 19.48 18.66 16.25 18.66 12.29C18.66 8.33 15.18 5.1 10.89 5.1C6.61 5.1 3.12 8.33 3.12 12.29C3.12 16.25 6.61 19.48 10.89 19.48ZM10.89 5.98C14.69 5.98 17.78 8.81 17.78 12.29C17.78 15.77 14.69 18.6 10.89 18.6C7.1 18.6 4 15.77 4 12.29C4 8.81 7.1 5.98 10.89 5.98Z" fill="#3BB77E" fill-opacity="1.000000" fill-rule="nonzero"/>
				<path id="Vector" d="M13.27 11.18C13.27 11.89 13.85 12.47 14.57 12.47C15.28 12.47 15.87 11.89 15.87 11.18C15.87 10.46 15.28 9.88 14.57 9.88C13.85 9.88 13.27 10.46 13.27 11.18ZM14.57 10.76C14.8 10.76 14.98 10.95 14.98 11.18C14.98 11.41 14.8 11.59 14.57 11.59C14.34 11.59 14.15 11.41 14.15 11.18C14.15 10.95 14.34 10.76 14.57 10.76Z" fill="#3BB77E" fill-opacity="1.000000" fill-rule="nonzero"/>
				<path id="Vector" d="M12.47 10.33C13.19 10.33 13.77 9.74 13.77 9.03C13.77 8.32 13.19 7.73 12.47 7.73C11.76 7.73 11.17 8.32 11.17 9.03C11.17 9.74 11.76 10.33 12.47 10.33ZM12.47 8.61C12.7 8.61 12.89 8.8 12.89 9.03C12.89 9.26 12.7 9.45 12.47 9.45C12.24 9.45 12.05 9.26 12.05 9.03C12.05 8.8 12.24 8.61 12.47 8.61Z" fill="#3BB77E" fill-opacity="1.000000" fill-rule="nonzero"/>
				<path id="Vector" d="M7.22 12.47C7.94 12.47 8.52 11.89 8.52 11.18C8.52 10.46 7.94 9.88 7.22 9.88C6.51 9.88 5.92 10.46 5.92 11.18C5.92 11.89 6.51 12.47 7.22 12.47ZM7.22 10.76C7.45 10.76 7.64 10.95 7.64 11.18C7.64 11.41 7.45 11.59 7.22 11.59C6.99 11.59 6.8 11.41 6.8 11.18C6.8 10.95 6.99 10.76 7.22 10.76Z" fill="#3BB77E" fill-opacity="1.000000" fill-rule="nonzero"/>
				<path id="Vector" d="M9.32 10.33C10.03 10.33 10.62 9.74 10.62 9.03C10.62 8.32 10.03 7.73 9.32 7.73C8.6 7.73 8.02 8.32 8.02 9.03C8.02 9.74 8.6 10.33 9.32 10.33ZM9.32 8.61C9.55 8.61 9.73 8.8 9.73 9.03C9.73 9.26 9.55 9.45 9.32 9.45C9.09 9.45 8.9 9.26 8.9 9.03C8.9 8.8 9.09 8.61 9.32 8.61Z" fill="#3BB77E" fill-opacity="1.000000" fill-rule="nonzero"/>
				<path id="Vector" d="M8.67 12.08C8.61 12.37 8.45 12.63 8.2 12.84C7.64 13.32 7.35 14 7.4 14.73C7.48 15.87 8.4 16.78 9.53 16.84C9.91 16.87 10.28 16.8 10.62 16.64C10.79 16.56 11 16.56 11.17 16.64C11.46 16.78 11.79 16.85 12.12 16.85C12.17 16.85 12.21 16.85 12.26 16.84C13.39 16.78 14.31 15.87 14.39 14.73C14.44 14 14.15 13.32 13.59 12.84C13.34 12.63 13.18 12.37 13.12 12.08C13.01 11.58 12.75 11.15 12.35 10.81C11.52 10.12 10.27 10.12 9.44 10.81C9.05 11.15 8.78 11.58 8.67 12.08ZM10 11.49C10.51 11.06 11.28 11.06 11.79 11.49C12.03 11.69 12.19 11.96 12.26 12.27C12.36 12.75 12.62 13.18 13.02 13.52C13.36 13.8 13.54 14.23 13.51 14.67C13.46 15.37 12.9 15.93 12.21 15.97C11.97 15.98 11.75 15.94 11.54 15.84C11.33 15.75 11.11 15.7 10.89 15.7C10.67 15.7 10.46 15.75 10.25 15.84C10.04 15.94 9.82 15.98 9.58 15.97C8.89 15.93 8.33 15.37 8.28 14.67C8.25 14.23 8.43 13.8 8.77 13.52C9.17 13.18 9.43 12.75 9.53 12.27C9.6 11.96 9.76 11.69 10 11.49Z" fill="#3BB77E" fill-opacity="1.000000" fill-rule="nonzero"/>
				<path id="Vector" d="M28.2 22.6C29.14 21.4 29.65 19.92 29.65 18.4C29.65 14.65 26.59 11.59 22.84 11.59C22.14 11.59 21.45 11.7 20.79 11.91C20.75 9.73 20.63 7.56 20.46 5.4C20.39 4.63 20.56 3.88 20.94 3.23C21.46 2.35 21.92 1.15 21.19 0.41C20.87 0.1 20.07 -0.35 16.73 -0.68C14.64 -0.88 12.34 -0.95 10.89 -0.95C9.44 -0.95 7.15 -0.88 5.06 -0.68C1.71 -0.35 0.91 0.1 0.6 0.41C-0.13 1.15 0.33 2.35 0.85 3.23C1.23 3.88 1.39 4.63 1.33 5.4C1.3 5.7 1.28 6.01 1.25 6.39C1.24 6.63 1.42 6.85 1.66 6.86C1.9 6.88 2.11 6.7 2.13 6.46C2.16 6.08 2.18 5.77 2.21 5.47C2.29 4.52 2.08 3.59 1.6 2.79C1.58 2.75 1.56 2.71 1.54 2.67C2.87 2.11 7.22 1.74 10.89 1.74C12.29 1.74 14.51 1.81 16.55 2C18.8 2.22 19.8 2.48 20.25 2.67C20.23 2.71 20.2 2.75 20.18 2.79C19.71 3.59 19.5 4.52 19.58 5.47C20.03 10.98 20.06 16.57 19.65 22.08C18.71 22.08 17.76 22.09 16.82 22.1C16.71 20.61 15.45 19.43 13.92 19.43C12.32 19.43 11.01 20.73 11.01 22.34C11.01 23.04 11.26 23.71 11.71 24.24C11.6 24.37 11.5 24.51 11.41 24.66C8.78 24.67 6.11 24.55 3.48 24.27C2.8 24.2 2.26 23.65 2.2 22.96C1.8 18.06 1.74 13.1 2.02 8.2C2.03 7.96 1.85 7.75 1.6 7.73C1.36 7.72 1.15 7.91 1.14 8.15C0.85 13.09 0.92 18.09 1.32 23.03C1.41 24.14 2.28 25.03 3.39 25.15C5.88 25.41 8.4 25.54 10.89 25.54C10.95 25.54 11.01 25.54 11.07 25.54C11.03 25.73 11.01 25.93 11.01 26.13C11.01 27.74 12.32 29.04 13.92 29.04C15.45 29.04 16.71 27.86 16.82 26.37C18.67 26.4 20.55 26.4 22.39 26.37C22.51 27.86 23.77 29.04 25.3 29.04C25.76 29.04 26.23 28.93 26.65 28.71C26.86 28.6 26.94 28.34 26.83 28.12C26.72 27.91 26.46 27.82 26.24 27.93C25.95 28.09 25.63 28.17 25.3 28.17C24.17 28.17 23.26 27.25 23.26 26.13C23.26 26.08 23.27 26.03 23.27 25.96C23.28 25.83 23.24 25.71 23.16 25.62C23.07 25.53 22.95 25.48 22.83 25.48C20.69 25.52 18.53 25.52 16.39 25.48C16.27 25.48 16.15 25.53 16.07 25.62C15.98 25.71 15.94 25.83 15.94 25.96C15.95 26.02 15.96 26.08 15.96 26.13C15.96 27.25 15.04 28.17 13.92 28.17C12.8 28.17 11.89 27.25 11.89 26.13C11.89 25.53 12.15 24.96 12.62 24.57C12.71 24.49 12.77 24.37 12.77 24.24C12.77 24.11 12.71 23.98 12.62 23.9C12.15 23.51 11.89 22.94 11.89 22.34C11.89 21.22 12.8 20.31 13.92 20.31C15.04 20.31 15.96 21.22 15.96 22.34C15.96 22.39 15.95 22.45 15.94 22.52C15.94 22.64 15.98 22.76 16.07 22.85C16.15 22.94 16.27 22.99 16.39 22.99C18.53 22.95 20.69 22.95 22.83 22.99C22.95 22.99 23.07 22.94 23.16 22.85C23.24 22.76 23.28 22.64 23.27 22.52C23.27 22.45 23.26 22.39 23.26 22.34C23.26 21.22 24.17 20.31 25.3 20.31C26.42 20.31 27.33 21.22 27.33 22.34C27.33 22.94 27.07 23.51 26.6 23.9C26.5 23.98 26.44 24.11 26.44 24.24C26.44 24.37 26.5 24.49 26.6 24.57C27.07 24.96 27.33 25.53 27.33 26.13C27.33 26.39 27.28 26.64 27.19 26.88C27.1 27.1 27.21 27.36 27.44 27.45C27.67 27.53 27.92 27.42 28.01 27.2C28.14 26.86 28.21 26.5 28.21 26.13C28.21 25.43 27.96 24.76 27.51 24.24C27.91 23.78 28.15 23.2 28.2 22.6ZM10.89 0.86C10.81 0.86 3.55 0.87 1.18 1.87C1.06 1.48 1.07 1.19 1.22 1.04C1.34 0.92 1.97 0.5 5.15 0.2C7.2 0 9.46 -0.08 10.89 -0.08C12.32 -0.08 14.58 0 16.64 0.2C19.81 0.5 20.45 0.92 20.57 1.04C20.72 1.19 20.73 1.48 20.6 1.87C18.23 0.87 10.97 0.86 10.89 0.86ZM25.3 19.43C23.77 19.43 22.51 20.61 22.39 22.1C21.78 22.09 21.16 22.09 20.53 22.09C20.76 19.01 20.85 15.92 20.81 12.83C21.46 12.59 22.14 12.47 22.84 12.47C26.11 12.47 28.77 15.13 28.77 18.4C28.77 19.42 28.51 20.41 28.01 21.29C27.59 20.2 26.53 19.43 25.3 19.43Z" fill="#3BB77E" fill-opacity="1.000000" fill-rule="nonzero"/>
			</g>
		</g>
	</g>
</svg>
